<svg xmlns="http://www.w3.org/2000/svg" xmlns:xlink="http://www.w3.org/1999/xlink" width="1920" zoomAndPan="magnify" viewBox="0 0 1440 809.999993" height="1080" preserveAspectRatio="xMidYMid meet" version="1.0"><defs><clipPath id="eaf4a59bbc"><path d="M 183.515625 177 L 903 177 L 903 712 L 183.515625 712 Z M 183.515625 177 " clip-rule="nonzero"/></clipPath><clipPath id="da7c5aa2b9"><path d="M 183.515625 708 L 1084 708 L 1084 763.269531 L 183.515625 763.269531 Z M 183.515625 708 " clip-rule="nonzero"/></clipPath><clipPath id="6de9b8af3b"><path d="M 332 47.019531 L 804 47.019531 L 804 649 L 332 649 Z M 332 47.019531 " clip-rule="nonzero"/></clipPath><clipPath id="51356e9eb5"><path d="M 331 47.019531 L 805 47.019531 L 805 650 L 331 650 Z M 331 47.019531 " clip-rule="nonzero"/></clipPath><clipPath id="4b6246c7fe"><path d="M 394.625 118 L 472.878906 118 L 472.878906 179.699219 L 394.625 179.699219 Z M 394.625 118 " clip-rule="nonzero"/></clipPath><clipPath id="f2e86643af"><path d="M 488.121094 164.390625 C 488.121094 194.414062 463.679688 218.753906 433.539062 218.753906 C 403.394531 218.753906 378.960938 194.414062 378.960938 164.390625 C 378.960938 134.363281 403.394531 110.019531 433.539062 110.019531 C 463.679688 110.019531 488.121094 134.363281 488.121094 164.390625 Z M 488.121094 164.390625 " clip-rule="nonzero"/></clipPath><clipPath id="12ec5fd020"><path d="M 378.585938 161.304688 L 488.140625 161.304688 L 488.140625 218.839844 L 378.585938 218.839844 Z M 378.585938 161.304688 " clip-rule="nonzero"/></clipPath><clipPath id="6a3f426de8"><path d="M 488.121094 164.390625 C 488.121094 194.414062 463.679688 218.753906 433.539062 218.753906 C 403.394531 218.753906 378.960938 194.414062 378.960938 164.390625 C 378.960938 134.363281 403.394531 110.019531 433.539062 110.019531 C 463.679688 110.019531 488.121094 134.363281 488.121094 164.390625 Z M 488.121094 164.390625 " clip-rule="nonzero"/></clipPath><clipPath id="c1c49b98a3"><path d="M 378.585938 160.523438 L 488.140625 160.523438 L 488.140625 218.839844 L 378.585938 218.839844 Z M 378.585938 160.523438 " clip-rule="nonzero"/></clipPath><clipPath id="a9d9084ebb"><path d="M 488.121094 164.390625 C 488.121094 194.414062 463.679688 218.753906 433.539062 218.753906 C 403.394531 218.753906 378.960938 194.414062 378.960938 164.390625 C 378.960938 134.363281 403.394531 110.019531 433.539062 110.019531 C 463.679688 110.019531 488.121094 134.363281 488.121094 164.390625 Z M 488.121094 164.390625 " clip-rule="nonzero"/></clipPath><clipPath id="c0d6195005"><path d="M 413.800781 126.863281 L 453.316406 126.863281 L 453.316406 175 L 413.800781 175 Z M 413.800781 126.863281 " clip-rule="nonzero"/></clipPath><clipPath id="ce27663dcb"><path d="M 488.121094 164.390625 C 488.121094 194.414062 463.679688 218.753906 433.539062 218.753906 C 403.394531 218.753906 378.960938 194.414062 378.960938 164.390625 C 378.960938 134.363281 403.394531 110.019531 433.539062 110.019531 C 463.679688 110.019531 488.121094 134.363281 488.121094 164.390625 Z M 488.121094 164.390625 " clip-rule="nonzero"/></clipPath><clipPath id="2089c01700"><path d="M 413.015625 126 L 454 126 L 454 176 L 413.015625 176 Z M 413.015625 126 " clip-rule="nonzero"/></clipPath><clipPath id="17ee8cdc7a"><path d="M 488.121094 164.390625 C 488.121094 194.414062 463.679688 218.753906 433.539062 218.753906 C 403.394531 218.753906 378.960938 194.414062 378.960938 164.390625 C 378.960938 134.363281 403.394531 110.019531 433.539062 110.019531 C 463.679688 110.019531 488.121094 134.363281 488.121094 164.390625 Z M 488.121094 164.390625 " clip-rule="nonzero"/></clipPath><clipPath id="114b0df853"><path d="M 413.015625 123.339844 L 454.882812 123.339844 L 454.882812 144.085938 L 413.015625 144.085938 Z M 413.015625 123.339844 " clip-rule="nonzero"/></clipPath><clipPath id="6d5cdd04ce"><path d="M 488.121094 164.390625 C 488.121094 194.414062 463.679688 218.753906 433.539062 218.753906 C 403.394531 218.753906 378.960938 194.414062 378.960938 164.390625 C 378.960938 134.363281 403.394531 110.019531 433.539062 110.019531 C 463.679688 110.019531 488.121094 134.363281 488.121094 164.390625 Z M 488.121094 164.390625 " clip-rule="nonzero"/></clipPath></defs><path fill="#ffffff" d="M 1200.203125 424.546875 C 1195.902344 441.632812 1178.5625 451.996094 1161.472656 447.691406 C 1144.386719 443.386719 1134.015625 426.042969 1138.316406 408.957031 C 1142.621094 391.867188 1159.960938 381.503906 1177.046875 385.808594 C 1194.140625 390.113281 1204.503906 407.457031 1200.203125 424.546875 Z M 1254.34375 438.179688 C 1256.660156 428.980469 1251.078125 419.640625 1241.875 417.324219 C 1241.1875 417.152344 1240.503906 417.035156 1239.820312 416.949219 C 1239.84375 409.84375 1238.792969 402.878906 1236.773438 396.257812 C 1237.40625 395.976562 1238.027344 395.667969 1238.632812 395.308594 C 1246.78125 390.4375 1249.4375 379.890625 1244.566406 371.746094 C 1239.699219 363.597656 1229.148438 360.9375 1221.003906 365.808594 C 1220.398438 366.171875 1219.828125 366.574219 1219.285156 366.996094 C 1214.410156 362.085938 1208.773438 357.863281 1202.5 354.515625 C 1202.75 353.875 1202.972656 353.214844 1203.144531 352.527344 C 1205.460938 343.328125 1199.878906 333.988281 1190.675781 331.671875 C 1181.472656 329.355469 1172.136719 334.9375 1169.820312 344.136719 C 1169.648438 344.820312 1169.53125 345.507812 1169.445312 346.191406 C 1162.339844 346.164062 1155.375 347.21875 1148.753906 349.230469 C 1148.480469 348.601562 1148.167969 347.980469 1147.804688 347.371094 C 1142.9375 339.222656 1132.390625 336.566406 1124.242188 341.4375 C 1116.097656 346.304688 1113.445312 356.855469 1118.3125 365 C 1118.675781 365.605469 1119.078125 366.171875 1119.5 366.714844 C 1114.585938 371.59375 1110.367188 377.230469 1107.023438 383.5 C 1106.378906 383.253906 1105.71875 383.03125 1105.035156 382.855469 C 1095.832031 380.535156 1086.496094 386.117188 1084.179688 395.320312 C 1081.867188 404.519531 1087.445312 413.859375 1096.644531 416.175781 C 1097.332031 416.351562 1098.019531 416.464844 1098.699219 416.550781 C 1098.675781 423.660156 1099.730469 430.625 1101.746094 437.246094 C 1101.117188 437.523438 1100.492188 437.832031 1099.886719 438.195312 C 1091.742188 443.0625 1089.085938 453.609375 1093.953125 461.757812 C 1098.824219 469.902344 1109.375 472.5625 1117.515625 467.691406 C 1118.128906 467.328125 1118.691406 466.925781 1119.238281 466.507812 C 1124.113281 471.417969 1129.75 475.640625 1136.019531 478.984375 C 1135.773438 479.628906 1135.550781 480.285156 1135.378906 480.972656 C 1133.0625 490.171875 1138.640625 499.511719 1147.84375 501.828125 C 1157.046875 504.144531 1166.382812 498.570312 1168.699219 489.367188 C 1168.871094 488.679688 1168.988281 487.992188 1169.074219 487.308594 C 1176.179688 487.335938 1183.144531 486.289062 1189.765625 484.269531 C 1190.046875 484.898438 1190.351562 485.523438 1190.714844 486.132812 C 1195.582031 494.277344 1206.136719 496.933594 1214.277344 492.0625 C 1222.421875 487.199219 1225.078125 476.648438 1220.210938 468.5 C 1219.851562 467.894531 1219.445312 467.328125 1219.019531 466.785156 C 1223.933594 461.90625 1228.15625 456.269531 1231.496094 450 C 1232.144531 450.25 1232.800781 450.476562 1233.488281 450.648438 C 1242.6875 452.964844 1252.027344 447.382812 1254.34375 438.179688 " fill-opacity="1" fill-rule="nonzero"/><path fill="#000000" d="M 1169.199219 385.691406 C 1163.664062 385.691406 1158.207031 387.1875 1153.328125 390.097656 C 1146.210938 394.351562 1141.175781 401.125 1139.152344 409.167969 C 1137.128906 417.210938 1138.355469 425.558594 1142.613281 432.679688 C 1146.867188 439.796875 1153.636719 444.832031 1161.683594 446.859375 C 1178.28125 451.042969 1195.191406 440.9375 1199.371094 424.335938 L 1200.203125 424.546875 L 1199.371094 424.335938 C 1203.550781 407.734375 1193.441406 390.828125 1176.839844 386.644531 C 1174.308594 386.007812 1171.746094 385.691406 1169.199219 385.691406 Z M 1169.261719 449.523438 C 1166.621094 449.523438 1163.941406 449.203125 1161.261719 448.527344 C 1152.773438 446.386719 1145.625 441.074219 1141.132812 433.558594 C 1136.644531 426.046875 1135.347656 417.234375 1137.484375 408.75 C 1139.621094 400.257812 1144.933594 393.113281 1152.445312 388.621094 C 1159.960938 384.128906 1168.773438 382.835938 1177.257812 384.972656 C 1194.78125 389.390625 1205.445312 407.234375 1201.035156 424.757812 C 1197.300781 439.597656 1183.917969 449.523438 1169.261719 449.523438 Z M 1119.234375 465.644531 C 1119.457031 465.644531 1119.679688 465.730469 1119.847656 465.898438 C 1124.722656 470.8125 1130.304688 474.960938 1136.425781 478.222656 C 1136.8125 478.425781 1136.980469 478.886719 1136.820312 479.292969 C 1136.554688 479.980469 1136.355469 480.601562 1136.210938 481.183594 C 1134.011719 489.90625 1139.328125 498.796875 1148.054688 500.996094 C 1156.78125 503.195312 1165.671875 497.882812 1167.863281 489.15625 C 1168.011719 488.578125 1168.128906 487.933594 1168.222656 487.203125 C 1168.277344 486.773438 1168.640625 486.449219 1169.074219 486.449219 C 1169.148438 486.433594 1169.242188 486.449219 1169.324219 486.449219 C 1176.175781 486.449219 1182.96875 485.4375 1189.515625 483.445312 C 1189.929688 483.320312 1190.375 483.523438 1190.550781 483.917969 C 1190.851562 484.597656 1191.144531 485.175781 1191.457031 485.6875 C 1196.070312 493.414062 1206.109375 495.941406 1213.839844 491.324219 C 1217.582031 489.089844 1220.222656 485.53125 1221.289062 481.300781 C 1222.351562 477.074219 1221.707031 472.6875 1219.46875 468.945312 C 1219.164062 468.429688 1218.792969 467.894531 1218.34375 467.3125 C 1218.078125 466.96875 1218.105469 466.480469 1218.414062 466.171875 C 1223.332031 461.292969 1227.476562 455.714844 1230.738281 449.597656 C 1230.941406 449.214844 1231.402344 449.042969 1231.804688 449.199219 C 1232.511719 449.46875 1233.109375 449.664062 1233.695312 449.8125 C 1237.925781 450.878906 1242.3125 450.230469 1246.054688 447.992188 C 1249.796875 445.757812 1252.445312 442.199219 1253.507812 437.96875 C 1254.570312 433.742188 1253.925781 429.355469 1251.691406 425.613281 C 1249.453125 421.871094 1245.890625 419.222656 1241.667969 418.15625 C 1241.074219 418.007812 1240.457031 417.894531 1239.710938 417.800781 C 1239.28125 417.746094 1238.960938 417.382812 1238.960938 416.949219 C 1238.980469 410.007812 1237.96875 403.132812 1235.949219 396.511719 C 1235.824219 396.09375 1236.027344 395.648438 1236.421875 395.472656 C 1237.101562 395.171875 1237.679688 394.875 1238.195312 394.566406 C 1241.9375 392.332031 1244.582031 388.773438 1245.644531 384.546875 C 1246.710938 380.316406 1246.066406 375.929688 1243.824219 372.1875 C 1239.207031 364.460938 1229.171875 361.929688 1221.445312 366.546875 C 1220.933594 366.855469 1220.398438 367.226562 1219.808594 367.679688 C 1219.46875 367.945312 1218.980469 367.914062 1218.675781 367.605469 C 1213.796875 362.691406 1208.21875 358.539062 1202.097656 355.277344 C 1201.714844 355.074219 1201.542969 354.613281 1201.699219 354.207031 C 1201.964844 353.519531 1202.164062 352.898438 1202.308594 352.320312 C 1204.507812 343.59375 1199.195312 334.703125 1190.46875 332.503906 C 1181.738281 330.308594 1172.851562 335.621094 1170.65625 344.34375 C 1170.511719 344.925781 1170.394531 345.566406 1170.300781 346.300781 C 1170.246094 346.726562 1169.878906 347.050781 1169.445312 347.050781 C 1169.382812 347.035156 1169.273438 347.050781 1169.1875 347.050781 C 1162.339844 347.050781 1155.550781 348.0625 1149.007812 350.054688 C 1148.589844 350.183594 1148.144531 349.980469 1147.96875 349.582031 C 1147.667969 348.902344 1147.375 348.324219 1147.066406 347.8125 C 1142.449219 340.089844 1132.410156 337.5625 1124.683594 342.175781 C 1120.941406 344.410156 1118.296875 347.972656 1117.230469 352.199219 C 1116.167969 356.425781 1116.8125 360.8125 1119.050781 364.554688 C 1119.355469 365.074219 1119.726562 365.605469 1120.183594 366.1875 C 1120.449219 366.535156 1120.414062 367.023438 1120.105469 367.328125 C 1115.195312 372.203125 1111.046875 377.78125 1107.78125 383.90625 C 1107.578125 384.285156 1107.121094 384.457031 1106.714844 384.300781 C 1106.007812 384.03125 1105.410156 383.835938 1104.824219 383.691406 C 1096.097656 381.492188 1087.210938 386.804688 1085.015625 395.53125 C 1082.816406 404.257812 1088.128906 413.144531 1096.859375 415.34375 C 1097.4375 415.492188 1098.078125 415.605469 1098.8125 415.699219 C 1099.242188 415.753906 1099.566406 416.121094 1099.5625 416.558594 C 1099.539062 423.492188 1100.550781 430.367188 1102.570312 436.996094 C 1102.695312 437.410156 1102.492188 437.855469 1102.097656 438.03125 C 1101.421875 438.328125 1100.84375 438.621094 1100.328125 438.933594 C 1096.582031 441.171875 1093.941406 444.730469 1092.875 448.957031 C 1091.8125 453.183594 1092.457031 457.574219 1094.695312 461.316406 C 1099.3125 469.039062 1109.351562 471.570312 1117.078125 466.953125 C 1117.597656 466.644531 1118.117188 466.285156 1118.710938 465.824219 C 1118.867188 465.703125 1119.050781 465.644531 1119.234375 465.644531 Z M 1152.039062 503.214844 C 1150.582031 503.214844 1149.109375 503.035156 1147.632812 502.667969 C 1137.988281 500.230469 1132.117188 490.410156 1134.542969 480.761719 C 1134.652344 480.320312 1134.789062 479.871094 1134.957031 479.386719 C 1129.160156 476.214844 1123.851562 472.265625 1119.15625 467.640625 C 1118.742188 467.9375 1118.347656 468.199219 1117.960938 468.429688 C 1109.421875 473.535156 1098.320312 470.742188 1093.214844 462.203125 C 1090.742188 458.0625 1090.03125 453.210938 1091.203125 448.539062 C 1092.382812 443.863281 1095.308594 439.925781 1099.445312 437.457031 C 1099.835938 437.222656 1100.25 437 1100.707031 436.777344 C 1098.851562 430.445312 1097.890625 423.902344 1097.84375 417.300781 C 1097.339844 417.21875 1096.878906 417.125 1096.433594 417.015625 C 1086.792969 414.585938 1080.917969 404.757812 1083.34375 395.109375 C 1085.773438 385.464844 1095.597656 379.589844 1105.246094 382.019531 C 1105.6875 382.132812 1106.140625 382.265625 1106.621094 382.433594 C 1109.789062 376.640625 1113.734375 371.332031 1118.367188 366.640625 C 1118.066406 366.222656 1117.808594 365.828125 1117.570312 365.441406 C 1115.097656 361.304688 1114.386719 356.449219 1115.558594 351.777344 C 1116.738281 347.105469 1119.664062 343.171875 1123.800781 340.695312 C 1132.339844 335.59375 1143.4375 338.386719 1148.542969 346.929688 C 1148.773438 347.320312 1149.003906 347.734375 1149.226562 348.195312 C 1155.550781 346.339844 1162.097656 345.378906 1168.703125 345.332031 C 1168.78125 344.828125 1168.875 344.363281 1168.988281 343.925781 C 1171.414062 334.277344 1181.242188 328.402344 1190.886719 330.835938 C 1200.535156 333.265625 1206.410156 343.09375 1203.980469 352.738281 C 1203.871094 353.179688 1203.734375 353.632812 1203.566406 354.113281 C 1209.359375 357.285156 1214.667969 361.234375 1219.363281 365.863281 C 1219.78125 365.5625 1220.175781 365.300781 1220.5625 365.070312 C 1229.101562 359.964844 1240.199219 362.761719 1245.304688 371.304688 C 1247.777344 375.441406 1248.492188 380.289062 1247.316406 384.964844 C 1246.136719 389.640625 1243.210938 393.574219 1239.074219 396.046875 C 1238.6875 396.277344 1238.269531 396.503906 1237.8125 396.722656 C 1239.667969 403.054688 1240.632812 409.597656 1240.679688 416.199219 C 1241.179688 416.28125 1241.644531 416.378906 1242.085938 416.488281 C 1246.757812 417.664062 1250.691406 420.589844 1253.164062 424.730469 C 1255.636719 428.867188 1256.355469 433.71875 1255.175781 438.390625 C 1254 443.066406 1251.078125 447 1246.9375 449.472656 C 1242.800781 451.945312 1237.949219 452.65625 1233.277344 451.480469 C 1232.832031 451.371094 1232.386719 451.234375 1231.898438 451.066406 C 1228.734375 456.859375 1224.785156 462.167969 1220.160156 466.867188 C 1220.453125 467.277344 1220.71875 467.671875 1220.949219 468.058594 C 1223.421875 472.195312 1224.136719 477.050781 1222.960938 481.722656 C 1221.78125 486.398438 1218.855469 490.328125 1214.71875 492.804688 C 1206.183594 497.910156 1195.082031 495.113281 1189.976562 486.574219 C 1189.746094 486.183594 1189.523438 485.765625 1189.300781 485.308594 C 1182.96875 487.164062 1176.425781 488.125 1169.820312 488.167969 C 1169.738281 488.675781 1169.644531 489.136719 1169.535156 489.574219 C 1167.476562 497.75 1160.109375 503.214844 1152.039062 503.214844 " fill-opacity="1" fill-rule="nonzero"/><path fill="#ffffff" d="M 1084.179688 532.101562 C 1081.578125 542.4375 1071.089844 548.703125 1060.753906 546.101562 C 1050.417969 543.496094 1044.144531 533.007812 1046.75 522.671875 C 1049.351562 512.335938 1059.839844 506.066406 1070.171875 508.671875 C 1080.511719 511.273438 1086.785156 521.761719 1084.179688 532.101562 Z M 1116.925781 540.347656 C 1118.328125 534.78125 1114.949219 529.132812 1109.386719 527.730469 C 1108.972656 527.625 1108.558594 527.554688 1108.144531 527.503906 C 1108.160156 523.207031 1107.519531 518.996094 1106.300781 514.988281 C 1106.683594 514.820312 1107.058594 514.636719 1107.425781 514.417969 C 1112.351562 511.46875 1113.957031 505.089844 1111.015625 500.160156 C 1108.066406 495.234375 1101.6875 493.628906 1096.761719 496.574219 C 1096.394531 496.792969 1096.050781 497.035156 1095.71875 497.292969 C 1092.773438 494.320312 1089.363281 491.765625 1085.570312 489.742188 C 1085.71875 489.355469 1085.855469 488.957031 1085.960938 488.539062 C 1087.363281 482.976562 1083.984375 477.328125 1078.417969 475.921875 C 1072.855469 474.523438 1067.203125 477.898438 1065.804688 483.464844 C 1065.699219 483.882812 1065.628906 484.296875 1065.574219 484.707031 C 1061.28125 484.691406 1057.066406 485.328125 1053.0625 486.546875 C 1052.894531 486.167969 1052.707031 485.785156 1052.488281 485.421875 C 1049.542969 480.496094 1043.160156 478.886719 1038.234375 481.828125 C 1033.308594 484.777344 1031.703125 491.15625 1034.648438 496.085938 C 1034.867188 496.453125 1035.113281 496.792969 1035.367188 497.121094 C 1032.398438 500.070312 1029.84375 503.480469 1027.820312 507.273438 C 1027.433594 507.121094 1027.03125 506.988281 1026.617188 506.882812 C 1021.050781 505.480469 1015.402344 508.855469 1014.003906 514.425781 C 1012.601562 519.988281 1015.980469 525.636719 1021.542969 527.039062 C 1021.957031 527.144531 1022.371094 527.210938 1022.785156 527.265625 C 1022.773438 531.5625 1023.410156 535.777344 1024.628906 539.777344 C 1024.246094 539.949219 1023.871094 540.132812 1023.503906 540.355469 C 1018.578125 543.296875 1016.96875 549.679688 1019.914062 554.609375 C 1022.863281 559.53125 1029.242188 561.140625 1034.167969 558.199219 C 1034.539062 557.976562 1034.878906 557.730469 1035.207031 557.476562 C 1038.15625 560.449219 1041.566406 563.003906 1045.359375 565.027344 C 1045.210938 565.414062 1045.074219 565.816406 1044.96875 566.230469 C 1043.566406 571.792969 1046.945312 577.441406 1052.511719 578.84375 C 1058.074219 580.25 1063.726562 576.871094 1065.125 571.304688 C 1065.230469 570.890625 1065.300781 570.476562 1065.351562 570.0625 C 1069.648438 570.074219 1073.863281 569.441406 1077.867188 568.226562 C 1078.035156 568.605469 1078.222656 568.980469 1078.441406 569.347656 C 1081.386719 574.277344 1087.769531 575.882812 1092.695312 572.9375 C 1097.621094 569.996094 1099.226562 563.613281 1096.28125 558.6875 C 1096.0625 558.320312 1095.816406 557.976562 1095.5625 557.644531 C 1098.53125 554.699219 1101.089844 551.289062 1103.109375 547.496094 C 1103.5 547.644531 1103.898438 547.785156 1104.3125 547.890625 C 1109.875 549.289062 1115.523438 545.914062 1116.925781 540.347656 " fill-opacity="1" fill-rule="nonzero"/><path fill="#000000" d="M 1065.425781 508.9375 C 1062.140625 508.9375 1058.902344 509.824219 1056 511.554688 C 1051.777344 514.082031 1048.785156 518.101562 1047.582031 522.882812 C 1046.378906 527.65625 1047.113281 532.617188 1049.636719 536.84375 C 1052.167969 541.070312 1056.183594 544.0625 1060.964844 545.265625 C 1065.742188 546.46875 1070.699219 545.738281 1074.929688 543.214844 C 1079.152344 540.6875 1082.140625 536.664062 1083.34375 531.886719 C 1085.828125 522.03125 1079.828125 511.988281 1069.96875 509.503906 C 1068.464844 509.125 1066.9375 508.9375 1065.425781 508.9375 Z M 1065.503906 547.550781 C 1063.851562 547.550781 1062.1875 547.347656 1060.542969 546.933594 C 1055.320312 545.617188 1050.921875 542.351562 1048.160156 537.726562 C 1045.398438 533.105469 1044.601562 527.679688 1045.914062 522.460938 C 1047.230469 517.238281 1050.496094 512.84375 1055.121094 510.078125 C 1059.742188 507.316406 1065.167969 506.519531 1070.386719 507.832031 C 1081.164062 510.550781 1087.730469 521.527344 1085.015625 532.3125 C 1083.699219 537.53125 1080.433594 541.929688 1075.808594 544.691406 C 1072.644531 546.585938 1069.097656 547.550781 1065.503906 547.550781 Z M 1035.207031 556.617188 C 1035.429688 556.617188 1035.652344 556.703125 1035.816406 556.871094 C 1038.746094 559.820312 1042.09375 562.308594 1045.761719 564.269531 C 1046.144531 564.472656 1046.316406 564.929688 1046.164062 565.335938 C 1046.003906 565.742188 1045.890625 566.097656 1045.804688 566.441406 C 1044.523438 571.535156 1047.625 576.726562 1052.71875 578.011719 C 1057.816406 579.292969 1063.007812 576.191406 1064.289062 571.09375 C 1064.375 570.757812 1064.441406 570.386719 1064.496094 569.957031 C 1064.550781 569.523438 1064.917969 569.203125 1065.351562 569.203125 C 1065.398438 569.191406 1065.449219 569.203125 1065.503906 569.203125 C 1069.613281 569.203125 1073.6875 568.597656 1077.613281 567.398438 C 1078.03125 567.273438 1078.476562 567.480469 1078.652344 567.875 C 1078.828125 568.269531 1079 568.605469 1079.179688 568.90625 C 1081.875 573.417969 1087.742188 574.894531 1092.253906 572.199219 C 1094.4375 570.894531 1095.980469 568.816406 1096.605469 566.347656 C 1097.226562 563.875 1096.851562 561.3125 1095.542969 559.128906 C 1095.363281 558.828125 1095.152344 558.527344 1094.882812 558.175781 C 1094.617188 557.828125 1094.648438 557.339844 1094.957031 557.035156 C 1097.902344 554.113281 1100.390625 550.765625 1102.351562 547.09375 C 1102.554688 546.710938 1103.011719 546.539062 1103.421875 546.695312 C 1103.820312 546.847656 1104.183594 546.964844 1104.523438 547.050781 C 1109.621094 548.339844 1114.808594 545.230469 1116.09375 540.140625 C 1117.375 535.039062 1114.273438 529.851562 1109.175781 528.566406 C 1108.835938 528.480469 1108.464844 528.414062 1108.03125 528.359375 C 1107.601562 528.304688 1107.277344 527.9375 1107.28125 527.5 C 1107.296875 523.339844 1106.6875 519.214844 1105.476562 515.242188 C 1105.347656 514.824219 1105.550781 514.378906 1105.953125 514.203125 C 1106.34375 514.027344 1106.683594 513.859375 1106.984375 513.675781 C 1109.171875 512.371094 1110.714844 510.289062 1111.335938 507.820312 C 1111.957031 505.351562 1111.582031 502.789062 1110.273438 500.605469 C 1107.578125 496.09375 1101.714844 494.617188 1097.203125 497.3125 C 1096.902344 497.492188 1096.589844 497.707031 1096.246094 497.972656 C 1095.902344 498.238281 1095.417969 498.210938 1095.109375 497.898438 C 1092.1875 494.949219 1088.835938 492.464844 1085.167969 490.503906 C 1084.78125 490.300781 1084.613281 489.839844 1084.769531 489.433594 C 1084.925781 489.03125 1085.039062 488.671875 1085.125 488.328125 C 1085.746094 485.859375 1085.371094 483.296875 1084.0625 481.113281 C 1082.757812 478.925781 1080.675781 477.378906 1078.207031 476.761719 C 1075.738281 476.140625 1073.175781 476.515625 1070.992188 477.820312 C 1068.804688 479.125 1067.257812 481.207031 1066.636719 483.671875 C 1066.554688 484.015625 1066.488281 484.378906 1066.429688 484.816406 C 1066.375 485.246094 1066.011719 485.566406 1065.574219 485.566406 C 1065.523438 485.554688 1065.476562 485.566406 1065.425781 485.566406 C 1061.316406 485.566406 1057.238281 486.175781 1053.3125 487.371094 C 1052.894531 487.496094 1052.453125 487.292969 1052.277344 486.898438 C 1052.101562 486.503906 1051.929688 486.160156 1051.75 485.863281 C 1049.050781 481.351562 1043.1875 479.875 1038.675781 482.570312 C 1036.488281 483.875 1034.945312 485.953125 1034.328125 488.425781 C 1033.703125 490.894531 1034.078125 493.457031 1035.386719 495.640625 C 1035.566406 495.9375 1035.78125 496.253906 1036.046875 496.59375 C 1036.3125 496.9375 1036.28125 497.425781 1035.972656 497.730469 C 1033.023438 500.660156 1030.539062 504.003906 1028.578125 507.675781 C 1028.375 508.058594 1027.917969 508.234375 1027.507812 508.074219 C 1027.097656 507.914062 1026.746094 507.800781 1026.40625 507.71875 C 1023.941406 507.097656 1021.375 507.472656 1019.191406 508.78125 C 1017.003906 510.085938 1015.457031 512.164062 1014.835938 514.632812 C 1014.214844 517.101562 1014.59375 519.664062 1015.902344 521.847656 C 1017.207031 524.035156 1019.285156 525.582031 1021.753906 526.203125 C 1022.089844 526.289062 1022.464844 526.359375 1022.890625 526.414062 C 1023.328125 526.46875 1023.648438 526.832031 1023.648438 527.265625 C 1023.632812 531.429688 1024.238281 535.554688 1025.453125 539.527344 C 1025.578125 539.949219 1025.375 540.390625 1024.980469 540.570312 C 1024.574219 540.746094 1024.246094 540.914062 1023.945312 541.09375 C 1021.757812 542.402344 1020.214844 544.480469 1019.589844 546.949219 C 1018.972656 549.414062 1019.347656 551.980469 1020.65625 554.167969 C 1023.351562 558.675781 1029.214844 560.15625 1033.726562 557.457031 C 1034.027344 557.277344 1034.335938 557.0625 1034.683594 556.796875 C 1034.832031 556.675781 1035.023438 556.617188 1035.207031 556.617188 Z M 1055.046875 580.023438 C 1054.140625 580.023438 1053.21875 579.914062 1052.300781 579.683594 C 1046.28125 578.164062 1042.621094 572.039062 1044.136719 566.019531 C 1044.179688 565.832031 1044.242188 565.636719 1044.304688 565.429688 C 1040.949219 563.574219 1037.867188 561.277344 1035.125 558.605469 C 1034.949219 558.726562 1034.78125 558.835938 1034.613281 558.9375 C 1029.28125 562.121094 1022.359375 560.375 1019.175781 555.050781 C 1017.636719 552.46875 1017.1875 549.441406 1017.921875 546.527344 C 1018.65625 543.613281 1020.480469 541.15625 1023.0625 539.613281 C 1023.230469 539.515625 1023.40625 539.417969 1023.59375 539.320312 C 1022.539062 535.636719 1021.980469 531.835938 1021.929688 528 C 1021.722656 527.964844 1021.523438 527.921875 1021.332031 527.871094 C 1018.421875 527.140625 1015.964844 525.3125 1014.421875 522.734375 C 1012.878906 520.15625 1012.433594 517.128906 1013.171875 514.214844 C 1013.902344 511.296875 1015.730469 508.84375 1018.308594 507.300781 C 1020.886719 505.757812 1023.910156 505.3125 1026.828125 506.046875 C 1027.019531 506.09375 1027.214844 506.152344 1027.417969 506.214844 C 1029.273438 502.863281 1031.566406 499.78125 1034.238281 497.039062 C 1034.117188 496.863281 1034.007812 496.695312 1033.90625 496.527344 C 1032.367188 493.945312 1031.917969 490.917969 1032.65625 488.003906 C 1033.386719 485.089844 1035.214844 482.636719 1037.792969 481.09375 C 1043.121094 477.90625 1050.042969 479.652344 1053.226562 484.980469 C 1053.324219 485.148438 1053.421875 485.324219 1053.519531 485.511719 C 1057.203125 484.457031 1061.003906 483.902344 1064.839844 483.847656 C 1064.875 483.640625 1064.917969 483.445312 1064.96875 483.253906 C 1065.699219 480.339844 1067.527344 477.882812 1070.109375 476.34375 C 1072.6875 474.800781 1075.714844 474.351562 1078.628906 475.089844 C 1081.542969 475.824219 1083.996094 477.648438 1085.539062 480.226562 C 1087.082031 482.808594 1087.527344 485.839844 1086.792969 488.753906 C 1086.75 488.941406 1086.6875 489.136719 1086.625 489.335938 C 1089.980469 491.199219 1093.0625 493.492188 1095.804688 496.164062 C 1095.980469 496.042969 1096.148438 495.933594 1096.316406 495.832031 C 1101.644531 492.652344 1108.570312 494.394531 1111.753906 499.71875 C 1113.296875 502.300781 1113.742188 505.328125 1113.007812 508.242188 C 1112.269531 511.15625 1110.445312 513.609375 1107.867188 515.152344 C 1107.695312 515.253906 1107.519531 515.351562 1107.332031 515.449219 C 1108.390625 519.132812 1108.945312 522.933594 1109 526.765625 C 1109.207031 526.804688 1109.402344 526.847656 1109.59375 526.898438 C 1115.613281 528.414062 1119.273438 534.542969 1117.757812 540.558594 C 1116.246094 546.574219 1110.117188 550.234375 1104.101562 548.722656 C 1103.910156 548.671875 1103.714844 548.617188 1103.511719 548.554688 C 1101.652344 551.910156 1099.363281 554.988281 1096.6875 557.730469 C 1096.8125 557.90625 1096.917969 558.074219 1097.019531 558.246094 C 1098.566406 560.824219 1099.007812 563.855469 1098.273438 566.765625 C 1097.539062 569.683594 1095.714844 572.136719 1093.136719 573.679688 C 1087.808594 576.859375 1080.886719 575.113281 1077.703125 569.792969 C 1077.605469 569.621094 1077.5 569.445312 1077.410156 569.253906 C 1073.726562 570.3125 1069.925781 570.867188 1066.089844 570.921875 C 1066.050781 571.128906 1066.007812 571.324219 1065.960938 571.515625 C 1064.675781 576.613281 1060.078125 580.023438 1055.046875 580.023438 " fill-opacity="1" fill-rule="nonzero"/><path fill="#000000" d="M 1194.359375 544.867188 C 1189.003906 544.867188 1184.644531 549.226562 1184.644531 554.582031 C 1184.644531 559.941406 1189.003906 564.296875 1194.359375 564.296875 C 1199.710938 564.296875 1204.070312 559.941406 1204.070312 554.582031 C 1204.070312 549.226562 1199.710938 544.867188 1194.359375 544.867188 Z M 1194.359375 566.019531 C 1188.054688 566.019531 1182.925781 560.886719 1182.925781 554.582031 C 1182.925781 548.277344 1188.054688 543.148438 1194.359375 543.148438 C 1200.660156 543.148438 1205.792969 548.277344 1205.792969 554.582031 C 1205.792969 560.886719 1200.660156 566.019531 1194.359375 566.019531 " fill-opacity="1" fill-rule="nonzero"/><path fill="#000000" d="M 1194.359375 575.726562 C 1189.003906 575.726562 1184.644531 580.085938 1184.644531 585.4375 C 1184.644531 590.796875 1189.003906 595.152344 1194.359375 595.152344 C 1199.710938 595.152344 1204.070312 590.796875 1204.070312 585.4375 C 1204.070312 580.085938 1199.710938 575.726562 1194.359375 575.726562 Z M 1194.359375 596.875 C 1188.054688 596.875 1182.925781 591.746094 1182.925781 585.4375 C 1182.925781 579.132812 1188.054688 574.007812 1194.359375 574.007812 C 1200.660156 574.007812 1205.792969 579.132812 1205.792969 585.4375 C 1205.792969 591.746094 1200.660156 596.875 1194.359375 596.875 " fill-opacity="1" fill-rule="nonzero"/><path fill="#5479f7" d="M 1194.359375 626.871094 C 1188.519531 626.871094 1183.785156 622.140625 1183.785156 616.300781 C 1183.785156 610.460938 1188.519531 605.726562 1194.359375 605.726562 C 1200.195312 605.726562 1204.929688 610.460938 1204.929688 616.300781 C 1204.929688 622.140625 1200.195312 626.871094 1194.359375 626.871094 " fill-opacity="1" fill-rule="nonzero"/><path fill="#000000" d="M 1194.359375 533.410156 C 1193.882812 533.410156 1193.496094 533.027344 1193.496094 532.550781 L 1193.496094 502.355469 C 1193.496094 501.878906 1193.882812 501.492188 1194.359375 501.492188 C 1194.832031 501.492188 1195.21875 501.878906 1195.21875 502.355469 L 1195.21875 532.550781 C 1195.21875 533.027344 1194.832031 533.410156 1194.359375 533.410156 " fill-opacity="1" fill-rule="nonzero"/><path fill="#000000" d="M 1195.574219 730.582031 L 1102.113281 730.582031 C 1101.640625 730.582031 1101.25 730.199219 1101.25 729.722656 C 1101.25 729.246094 1101.640625 728.859375 1102.113281 728.859375 L 1194.714844 728.859375 L 1194.714844 634.144531 C 1194.714844 633.667969 1195.101562 633.28125 1195.574219 633.28125 C 1196.054688 633.28125 1196.4375 633.667969 1196.4375 634.144531 L 1196.4375 729.722656 C 1196.4375 730.199219 1196.054688 730.582031 1195.574219 730.582031 " fill-opacity="1" fill-rule="nonzero"/><path fill="#ffffff" d="M 1239.496094 344.890625 L 1239.496094 241.765625 L 1103.074219 241.746094 L 1103.074219 165.324219 L 1254.867188 165.324219 L 1254.628906 219.265625 L 1239.496094 344.890625 " fill-opacity="1" fill-rule="nonzero"/><path fill="#000000" d="M 1239.496094 345.753906 C 1239.015625 345.753906 1238.632812 345.367188 1238.632812 344.890625 L 1238.632812 242.625 L 1103.074219 242.605469 C 1102.597656 242.605469 1102.214844 242.21875 1102.214844 241.746094 L 1102.214844 165.324219 C 1102.214844 165.097656 1102.304688 164.878906 1102.464844 164.71875 C 1102.625 164.558594 1102.84375 164.464844 1103.074219 164.464844 L 1254.867188 164.464844 C 1255.09375 164.464844 1255.3125 164.558594 1255.476562 164.71875 C 1255.636719 164.882812 1255.730469 165.101562 1255.730469 165.328125 L 1255.492188 219.269531 C 1255.484375 219.742188 1255.101562 220.128906 1254.628906 220.128906 C 1254.625 220.128906 1254.625 220.128906 1254.625 220.128906 C 1254.148438 220.125 1253.765625 219.742188 1253.769531 219.261719 L 1254.003906 166.1875 L 1103.933594 166.1875 L 1103.9375 240.882812 L 1239.496094 240.902344 C 1239.96875 240.902344 1240.355469 241.289062 1240.355469 241.765625 L 1240.355469 344.890625 C 1240.355469 345.367188 1239.96875 345.753906 1239.496094 345.753906 " fill-opacity="1" fill-rule="nonzero"/><path fill="#000000" d="M 1239.496094 220.128906 L 1116.964844 220.128906 C 1116.492188 220.128906 1116.105469 219.742188 1116.105469 219.265625 C 1116.105469 218.789062 1116.492188 218.40625 1116.964844 218.40625 L 1239.496094 218.40625 C 1239.96875 218.40625 1240.355469 218.789062 1240.355469 219.265625 C 1240.355469 219.742188 1239.96875 220.128906 1239.496094 220.128906 " fill-opacity="1" fill-rule="nonzero"/><path fill="#000000" d="M 1239.496094 205.589844 L 1116.964844 205.589844 C 1116.492188 205.589844 1116.105469 205.203125 1116.105469 204.730469 C 1116.105469 204.253906 1116.492188 203.871094 1116.964844 203.871094 L 1239.496094 203.871094 C 1239.96875 203.871094 1240.355469 204.253906 1240.355469 204.730469 C 1240.355469 205.203125 1239.96875 205.589844 1239.496094 205.589844 " fill-opacity="1" fill-rule="nonzero"/><path fill="#000000" d="M 1239.496094 191.050781 L 1116.964844 191.050781 C 1116.492188 191.050781 1116.105469 190.667969 1116.105469 190.191406 C 1116.105469 189.714844 1116.492188 189.328125 1116.964844 189.328125 L 1239.496094 189.328125 C 1239.96875 189.328125 1240.355469 189.714844 1240.355469 190.191406 C 1240.355469 190.667969 1239.96875 191.050781 1239.496094 191.050781 " fill-opacity="1" fill-rule="nonzero"/><path fill="#ffffff" d="M 1206.730469 219.265625 C 1206.730469 216.371094 1209.078125 214.023438 1211.972656 214.023438 C 1214.867188 214.023438 1217.214844 216.371094 1217.214844 219.265625 C 1217.214844 222.164062 1214.867188 224.511719 1211.972656 224.511719 C 1209.078125 224.511719 1206.730469 222.164062 1206.730469 219.265625 " fill-opacity="1" fill-rule="nonzero"/><path fill="#000000" d="M 1211.972656 214.882812 C 1209.554688 214.882812 1207.589844 216.851562 1207.589844 219.265625 C 1207.589844 221.6875 1209.554688 223.648438 1211.972656 223.648438 C 1214.386719 223.648438 1216.355469 221.6875 1216.355469 219.265625 C 1216.355469 216.851562 1214.386719 214.882812 1211.972656 214.882812 Z M 1211.972656 225.375 C 1208.609375 225.375 1205.871094 222.632812 1205.871094 219.265625 C 1205.871094 215.898438 1208.609375 213.160156 1211.972656 213.160156 C 1215.339844 213.160156 1218.078125 215.898438 1218.078125 219.265625 C 1218.078125 222.632812 1215.339844 225.375 1211.972656 225.375 " fill-opacity="1" fill-rule="nonzero"/><path fill="#5479f7" d="M 1173.113281 205.277344 C 1173.113281 202.378906 1175.460938 200.035156 1178.355469 200.035156 C 1181.25 200.035156 1183.597656 202.378906 1183.597656 205.277344 C 1183.597656 208.175781 1181.25 210.523438 1178.355469 210.523438 C 1175.460938 210.523438 1173.113281 208.175781 1173.113281 205.277344 " fill-opacity="1" fill-rule="nonzero"/><path fill="#ffffff" d="M 1121.597656 190.226562 C 1121.597656 187.328125 1123.945312 184.980469 1126.839844 184.980469 C 1129.734375 184.980469 1132.082031 187.328125 1132.082031 190.226562 C 1132.082031 193.121094 1129.734375 195.46875 1126.839844 195.46875 C 1123.945312 195.46875 1121.597656 193.121094 1121.597656 190.226562 " fill-opacity="1" fill-rule="nonzero"/><path fill="#000000" d="M 1126.839844 185.84375 C 1124.421875 185.84375 1122.460938 187.808594 1122.460938 190.230469 C 1122.460938 192.644531 1124.421875 194.609375 1126.839844 194.609375 C 1129.253906 194.609375 1131.222656 192.644531 1131.222656 190.226562 C 1131.222656 187.808594 1129.253906 185.84375 1126.839844 185.84375 Z M 1126.839844 196.332031 C 1123.476562 196.332031 1120.738281 193.59375 1120.738281 190.230469 C 1120.738281 186.859375 1123.476562 184.121094 1126.839844 184.121094 C 1130.207031 184.121094 1132.945312 186.859375 1132.945312 190.226562 C 1132.945312 193.59375 1130.207031 196.332031 1126.839844 196.332031 " fill-opacity="1" fill-rule="nonzero"/><path fill="#000000" d="M 1180.738281 149.460938 C 1180.261719 149.460938 1179.878906 149.078125 1179.878906 148.601562 L 1179.878906 112.136719 L 1017.75 112.136719 C 1017.277344 112.136719 1016.890625 111.753906 1016.890625 111.277344 C 1016.890625 110.804688 1017.277344 110.417969 1017.75 110.417969 L 1180.738281 110.417969 C 1181.210938 110.417969 1181.597656 110.804688 1181.597656 111.277344 L 1181.597656 148.601562 C 1181.597656 149.078125 1181.210938 149.460938 1180.738281 149.460938 " fill-opacity="1" fill-rule="nonzero"/><path fill="#ffffff" d="M 217.03125 177.890625 L 868.609375 177.890625 C 886.695312 177.890625 901.359375 192.578125 901.359375 210.695312 L 901.359375 677.621094 C 901.359375 695.734375 886.695312 710.421875 868.609375 710.421875 L 184.28125 710.421875 L 184.28125 210.695312 C 184.28125 192.578125 198.941406 177.890625 217.03125 177.890625 " fill-opacity="1" fill-rule="nonzero"/><g clip-path="url(#eaf4a59bbc)"><path fill="#000000" d="M 185.140625 709.5625 L 868.609375 709.5625 C 886.191406 709.5625 900.496094 695.234375 900.496094 677.621094 L 900.496094 210.695312 C 900.496094 193.082031 886.191406 178.753906 868.609375 178.753906 L 217.03125 178.753906 C 199.445312 178.753906 185.140625 193.082031 185.140625 210.695312 Z M 868.609375 711.285156 L 184.28125 711.285156 C 183.804688 711.285156 183.417969 710.898438 183.417969 710.421875 L 183.417969 210.695312 C 183.417969 192.132812 198.496094 177.03125 217.03125 177.03125 L 868.609375 177.03125 C 887.140625 177.03125 902.21875 192.132812 902.21875 210.695312 L 902.21875 677.621094 C 902.21875 696.179688 887.140625 711.285156 868.609375 711.285156 " fill-opacity="1" fill-rule="nonzero"/></g><path fill="#000000" d="M 217.03125 192.066406 C 206.777344 192.066406 198.433594 200.425781 198.433594 210.695312 L 198.433594 675 C 198.433594 686.714844 207.949219 696.246094 219.644531 696.246094 L 868.609375 696.246094 C 878.859375 696.246094 887.207031 687.890625 887.207031 677.621094 L 887.207031 210.695312 C 887.207031 200.425781 878.859375 192.066406 868.609375 192.066406 Z M 868.609375 697.96875 L 219.644531 697.96875 C 207 697.96875 196.710938 687.664062 196.710938 675 L 196.710938 210.695312 C 196.710938 199.472656 205.828125 190.347656 217.03125 190.347656 L 868.609375 190.347656 C 879.8125 190.347656 888.925781 199.472656 888.925781 210.695312 L 888.925781 677.621094 C 888.925781 688.839844 879.8125 697.96875 868.609375 697.96875 " fill-opacity="1" fill-rule="nonzero"/><path fill="#ffffff" d="M 236.960938 762.40625 L 1029.710938 762.40625 C 1058.808594 762.40625 1082.398438 738.8125 1082.398438 709.710938 L 184.28125 709.710938 C 184.28125 738.8125 207.867188 762.40625 236.960938 762.40625 " fill-opacity="1" fill-rule="nonzero"/><g clip-path="url(#da7c5aa2b9)"><path fill="#000000" d="M 185.148438 710.570312 C 185.609375 738.757812 208.675781 761.546875 236.960938 761.546875 L 1029.710938 761.546875 C 1058 761.546875 1081.066406 738.757812 1081.527344 710.570312 Z M 1029.710938 763.269531 L 236.960938 763.269531 C 207.4375 763.269531 183.417969 739.242188 183.417969 709.710938 C 183.417969 709.238281 183.804688 708.847656 184.28125 708.847656 L 1082.398438 708.847656 C 1082.625 708.847656 1082.84375 708.941406 1083.003906 709.101562 C 1083.164062 709.261719 1083.253906 709.480469 1083.253906 709.710938 C 1083.253906 739.242188 1059.238281 763.269531 1029.710938 763.269531 " fill-opacity="1" fill-rule="nonzero"/></g><g clip-path="url(#6de9b8af3b)"><path fill="#ffffff" d="M 793.957031 648.59375 L 341.796875 648.59375 C 336.394531 648.59375 332.015625 644.214844 332.015625 638.808594 L 332.015625 57.664062 C 332.015625 52.257812 336.394531 47.878906 341.796875 47.878906 L 793.957031 47.878906 C 799.359375 47.878906 803.738281 52.257812 803.738281 57.664062 L 803.738281 638.808594 C 803.738281 644.214844 799.359375 648.59375 793.957031 648.59375 " fill-opacity="1" fill-rule="nonzero"/></g><g clip-path="url(#51356e9eb5)"><path fill="#000000" d="M 341.796875 48.738281 C 336.875 48.738281 332.875 52.742188 332.875 57.664062 L 332.875 638.808594 C 332.875 643.734375 336.875 647.734375 341.796875 647.734375 L 793.957031 647.734375 C 798.875 647.734375 802.878906 643.734375 802.878906 638.808594 L 802.878906 57.664062 C 802.878906 52.742188 798.875 48.738281 793.957031 48.738281 Z M 793.957031 649.457031 L 341.796875 649.457031 C 335.925781 649.457031 331.15625 644.679688 331.15625 638.808594 L 331.15625 57.664062 C 331.15625 51.792969 335.925781 47.019531 341.796875 47.019531 L 793.957031 47.019531 C 799.828125 47.019531 804.601562 51.792969 804.601562 57.664062 L 804.601562 638.808594 C 804.601562 644.679688 799.828125 649.457031 793.957031 649.457031 " fill-opacity="1" fill-rule="nonzero"/></g><path fill="#000000" d="M 770.839844 261.46875 L 666.078125 261.46875 C 665.597656 261.46875 665.214844 261.082031 665.214844 260.605469 C 665.214844 260.128906 665.597656 259.746094 666.078125 259.746094 L 770.839844 259.746094 C 771.3125 259.746094 771.699219 260.128906 771.699219 260.605469 C 771.699219 261.082031 771.3125 261.46875 770.839844 261.46875 " fill-opacity="1" fill-rule="nonzero"/><path fill="#000000" d="M 646.203125 261.46875 L 495.855469 261.46875 C 495.378906 261.46875 494.996094 261.082031 494.996094 260.605469 C 494.996094 260.128906 495.378906 259.746094 495.855469 259.746094 L 646.203125 259.746094 C 646.679688 259.746094 647.066406 260.128906 647.066406 260.605469 C 647.066406 261.082031 646.679688 261.46875 646.203125 261.46875 " fill-opacity="1" fill-rule="nonzero"/><path fill="#000000" d="M 476.1875 261.46875 L 378.960938 261.46875 C 378.484375 261.46875 378.097656 261.082031 378.097656 260.605469 C 378.097656 260.128906 378.484375 259.746094 378.960938 259.746094 L 476.1875 259.746094 C 476.660156 259.746094 477.046875 260.128906 477.046875 260.605469 C 477.046875 261.082031 476.660156 261.46875 476.1875 261.46875 " fill-opacity="1" fill-rule="nonzero"/><path fill="#000000" d="M 770.839844 290.417969 L 586.589844 290.417969 C 586.117188 290.417969 585.730469 290.035156 585.730469 289.558594 C 585.730469 289.082031 586.117188 288.695312 586.589844 288.695312 L 770.839844 288.695312 C 771.3125 288.695312 771.699219 289.082031 771.699219 289.558594 C 771.699219 290.035156 771.3125 290.417969 770.839844 290.417969 " fill-opacity="1" fill-rule="nonzero"/><path fill="#000000" d="M 569.058594 290.417969 L 378.960938 290.417969 C 378.484375 290.417969 378.097656 290.035156 378.097656 289.558594 C 378.097656 289.082031 378.484375 288.695312 378.960938 288.695312 L 569.058594 288.695312 C 569.535156 288.695312 569.917969 289.082031 569.917969 289.558594 C 569.917969 290.035156 569.535156 290.417969 569.058594 290.417969 " fill-opacity="1" fill-rule="nonzero"/><path fill="#000000" d="M 673.527344 319.375 L 532.773438 319.375 C 532.296875 319.375 531.910156 318.988281 531.910156 318.511719 C 531.910156 318.035156 532.296875 317.652344 532.773438 317.652344 L 673.527344 317.652344 C 674.003906 317.652344 674.386719 318.035156 674.386719 318.511719 C 674.386719 318.988281 674.003906 319.375 673.527344 319.375 " fill-opacity="1" fill-rule="nonzero"/><path fill="#000000" d="M 510.503906 319.375 L 378.960938 319.375 C 378.484375 319.375 378.097656 318.988281 378.097656 318.511719 C 378.097656 318.035156 378.484375 317.652344 378.960938 317.652344 L 510.503906 317.652344 C 510.980469 317.652344 511.363281 318.035156 511.363281 318.511719 C 511.363281 318.988281 510.980469 319.375 510.503906 319.375 " fill-opacity="1" fill-rule="nonzero"/><path fill="#ffffff" d="M 520.523438 395.542969 C 490.308594 365.316406 441.285156 365.34375 411.03125 395.605469 C 380.78125 425.871094 380.75 474.90625 410.96875 505.132812 C 441.1875 535.359375 490.207031 535.332031 520.460938 505.070312 C 550.714844 474.808594 550.742188 425.769531 520.523438 395.542969 " fill-opacity="1" fill-rule="nonzero"/><path fill="#000000" d="M 465.835938 373.75 C 465.824219 373.75 465.808594 373.75 465.789062 373.75 C 445.34375 373.761719 426.109375 381.742188 411.640625 396.214844 C 381.773438 426.09375 381.742188 474.683594 411.578125 504.527344 C 426.480469 519.433594 446.066406 526.886719 465.652344 526.890625 C 485.277344 526.890625 504.90625 519.414062 519.851562 504.460938 C 549.722656 474.582031 549.75 425.992188 519.914062 396.152344 C 505.476562 381.707031 486.269531 373.75 465.835938 373.75 Z M 465.652344 528.613281 C 445.625 528.613281 425.601562 520.988281 410.359375 505.742188 C 379.855469 475.230469 379.882812 425.550781 410.425781 394.996094 C 425.21875 380.199219 444.882812 372.042969 465.789062 372.03125 C 465.808594 372.03125 465.824219 372.03125 465.835938 372.03125 C 486.730469 372.03125 506.363281 380.164062 521.132812 394.9375 C 551.636719 425.449219 551.609375 475.128906 521.070312 505.675781 C 505.785156 520.964844 485.71875 528.613281 465.652344 528.613281 " fill-opacity="1" fill-rule="nonzero"/><path fill="#5479f7" d="M 378.960938 429.101562 C 388.226562 389.863281 423.453125 360.644531 465.523438 360.53125 L 465.523438 450.03125 C 465.523438 450.03125 393.390625 432.429688 378.960938 429.101562 " fill-opacity="1" fill-rule="nonzero"/><path fill="#ffffff" d="M 516.707031 383.667969 C 534.710938 397.152344 546.195312 417.222656 549.191406 438.875 C 528.921875 441.585938 466.484375 449.832031 466.484375 449.832031 C 466.484375 449.832031 508.472656 394.757812 516.707031 383.667969 " fill-opacity="1" fill-rule="nonzero"/><path fill="#000000" d="M 516.878906 384.875 C 508.5625 396.03125 475.320312 439.65625 468.421875 448.710938 C 479.214844 447.28125 529.515625 440.636719 548.21875 438.132812 C 545.074219 417.085938 533.707031 397.765625 516.878906 384.875 Z M 466.484375 450.695312 C 466.179688 450.695312 465.894531 450.53125 465.738281 450.265625 C 465.5625 449.964844 465.585938 449.585938 465.796875 449.3125 C 466.222656 448.761719 507.878906 394.113281 516.019531 383.15625 C 516.15625 382.972656 516.359375 382.847656 516.585938 382.820312 C 516.8125 382.785156 517.039062 382.84375 517.222656 382.980469 C 535.023438 396.308594 546.984375 416.632812 550.046875 438.757812 C 550.078125 438.984375 550.019531 439.214844 549.878906 439.394531 C 549.742188 439.578125 549.535156 439.695312 549.304688 439.726562 C 529.265625 442.410156 467.222656 450.601562 466.597656 450.6875 C 466.558594 450.695312 466.523438 450.695312 466.484375 450.695312 " fill-opacity="1" fill-rule="nonzero"/><path fill="#5479f7" d="M 537.214844 582.628906 C 537.214844 577.71875 541.195312 573.734375 546.105469 573.734375 C 551.015625 573.734375 555 577.71875 555 582.628906 C 555 587.539062 551.015625 591.515625 546.105469 591.515625 C 541.195312 591.515625 537.214844 587.539062 537.214844 582.628906 " fill-opacity="1" fill-rule="nonzero"/><path fill="#5479f7" d="M 511.273438 582.628906 C 511.273438 577.71875 515.25 573.734375 520.160156 573.734375 C 525.070312 573.734375 529.054688 577.71875 529.054688 582.628906 C 529.054688 587.539062 525.070312 591.515625 520.160156 591.515625 C 515.25 591.515625 511.273438 587.539062 511.273438 582.628906 " fill-opacity="1" fill-rule="nonzero"/><path fill="#5479f7" d="M 485.324219 582.628906 C 485.324219 577.71875 489.304688 573.734375 494.214844 573.734375 C 499.125 573.734375 503.105469 577.71875 503.105469 582.628906 C 503.105469 587.539062 499.125 591.515625 494.214844 591.515625 C 489.304688 591.515625 485.324219 587.539062 485.324219 582.628906 " fill-opacity="1" fill-rule="nonzero"/><path fill="#000000" d="M 472.152344 583.464844 L 395.21875 583.464844 C 394.90625 583.464844 394.625 583.296875 394.472656 583.027344 C 394.316406 582.757812 394.320312 582.429688 394.476562 582.164062 L 443.992188 498.441406 C 444.234375 498.027344 444.765625 497.890625 445.171875 498.132812 C 445.582031 498.378906 445.714844 498.90625 445.472656 499.3125 L 396.726562 581.738281 L 472.152344 581.738281 C 472.628906 581.738281 473.011719 582.125 473.011719 582.601562 C 473.011719 583.078125 472.628906 583.464844 472.152344 583.464844 " fill-opacity="1" fill-rule="nonzero"/><path fill="#e2eaff" d="M 675.992188 385.210938 L 675.992188 538.53125 C 675.992188 544.503906 671.148438 549.347656 665.175781 549.347656 L 661.332031 549.347656 C 655.363281 549.347656 650.519531 544.503906 650.519531 538.53125 L 650.519531 385.210938 C 650.519531 379.238281 655.363281 374.390625 661.332031 374.390625 L 665.175781 374.390625 C 671.148438 374.390625 675.992188 379.238281 675.992188 385.210938 " fill-opacity="1" fill-rule="nonzero"/><path fill="#e2eaff" d="M 721.71875 385.210938 L 721.71875 538.53125 C 721.71875 544.503906 716.878906 549.347656 710.902344 549.347656 L 707.066406 549.347656 C 701.089844 549.347656 696.25 544.503906 696.25 538.53125 L 696.25 385.210938 C 696.25 379.238281 701.089844 374.390625 707.066406 374.390625 L 710.902344 374.390625 C 716.878906 374.390625 721.71875 379.238281 721.71875 385.210938 " fill-opacity="1" fill-rule="nonzero"/><path fill="#e2eaff" d="M 767.734375 385.210938 L 767.734375 538.53125 C 767.734375 544.503906 762.894531 549.347656 756.921875 549.347656 L 753.082031 549.347656 C 747.109375 549.347656 742.269531 544.503906 742.269531 538.53125 L 742.269531 385.210938 C 742.269531 379.238281 747.109375 374.390625 753.082031 374.390625 L 756.921875 374.390625 C 762.894531 374.390625 767.734375 379.238281 767.734375 385.210938 " fill-opacity="1" fill-rule="nonzero"/><path fill="#e2eaff" d="M 630.628906 385.210938 L 630.628906 538.53125 C 630.628906 544.503906 625.785156 549.347656 619.8125 549.347656 L 615.972656 549.347656 C 610 549.347656 605.15625 544.503906 605.15625 538.53125 L 605.15625 385.210938 C 605.15625 379.238281 610 374.390625 615.972656 374.390625 L 619.8125 374.390625 C 625.785156 374.390625 630.628906 379.238281 630.628906 385.210938 " fill-opacity="1" fill-rule="nonzero"/><path fill="#5479f7" d="M 675.992188 404.78125 L 675.992188 538.53125 C 675.992188 544.503906 671.148438 549.347656 665.175781 549.347656 L 661.332031 549.347656 C 655.363281 549.347656 650.519531 544.503906 650.519531 538.53125 L 650.519531 404.78125 C 650.519531 398.804688 655.363281 393.960938 661.332031 393.960938 L 665.175781 393.960938 C 671.148438 393.960938 675.992188 398.804688 675.992188 404.78125 " fill-opacity="1" fill-rule="nonzero"/><path fill="#5479f7" d="M 721.71875 487.65625 L 721.71875 538.53125 C 721.71875 544.503906 716.878906 549.347656 710.902344 549.347656 L 707.066406 549.347656 C 701.089844 549.347656 696.25 544.503906 696.25 538.53125 L 696.25 487.65625 C 696.25 481.683594 701.089844 476.839844 707.066406 476.839844 L 710.902344 476.839844 C 716.878906 476.839844 721.71875 481.683594 721.71875 487.65625 " fill-opacity="1" fill-rule="nonzero"/><path fill="#5479f7" d="M 767.734375 468.085938 L 767.734375 538.53125 C 767.734375 544.503906 762.894531 549.347656 756.921875 549.347656 L 753.082031 549.347656 C 747.109375 549.347656 742.269531 544.503906 742.269531 538.53125 L 742.269531 468.085938 C 742.269531 462.113281 747.109375 457.269531 753.082031 457.269531 L 756.921875 457.269531 C 762.894531 457.269531 767.734375 462.113281 767.734375 468.085938 " fill-opacity="1" fill-rule="nonzero"/><path fill="#5479f7" d="M 630.628906 427.113281 L 630.628906 538.53125 C 630.628906 544.503906 625.785156 549.347656 619.8125 549.347656 L 615.972656 549.347656 C 610 549.347656 605.15625 544.503906 605.15625 538.53125 L 605.15625 427.113281 C 605.15625 421.136719 610 416.292969 615.972656 416.292969 L 619.8125 416.292969 C 625.785156 416.292969 630.628906 421.136719 630.628906 427.113281 " fill-opacity="1" fill-rule="nonzero"/><path fill="#e2eaff" d="M 671.457031 152.769531 L 520.175781 152.769531 C 514.859375 152.769531 510.503906 148.417969 510.503906 143.09375 L 510.503906 139.613281 C 510.503906 134.292969 514.859375 129.9375 520.175781 129.9375 L 671.457031 129.9375 C 676.777344 129.9375 681.128906 134.292969 681.128906 139.613281 L 681.128906 143.09375 C 681.128906 148.417969 676.777344 152.769531 671.457031 152.769531 " fill-opacity="1" fill-rule="nonzero"/><path fill="#e2eaff" d="M 745.332031 194.070312 L 520.175781 194.070312 C 514.859375 194.070312 510.503906 189.714844 510.503906 184.398438 L 510.503906 180.917969 C 510.503906 175.597656 514.859375 171.242188 520.175781 171.242188 L 745.332031 171.242188 C 750.648438 171.242188 755 175.597656 755 180.917969 L 755 184.398438 C 755 189.714844 750.648438 194.070312 745.332031 194.070312 " fill-opacity="1" fill-rule="nonzero"/><path fill="#ffffff" d="M 495.855469 164.390625 C 495.855469 198.671875 467.953125 226.460938 433.539062 226.460938 C 399.125 226.460938 371.222656 198.671875 371.222656 164.390625 C 371.222656 130.105469 399.125 102.316406 433.539062 102.316406 C 467.953125 102.316406 495.855469 130.105469 495.855469 164.390625 " fill-opacity="1" fill-rule="nonzero"/><path fill="#000000" d="M 433.539062 103.175781 C 399.652344 103.175781 372.085938 130.636719 372.085938 164.390625 C 372.085938 198.140625 399.652344 225.597656 433.539062 225.597656 C 467.425781 225.597656 494.996094 198.140625 494.996094 164.390625 C 494.996094 130.636719 467.425781 103.175781 433.539062 103.175781 Z M 433.539062 227.324219 C 398.703125 227.324219 370.363281 199.089844 370.363281 164.390625 C 370.363281 129.6875 398.703125 101.453125 433.539062 101.453125 C 468.375 101.453125 496.71875 129.6875 496.71875 164.390625 C 496.71875 199.089844 468.375 227.324219 433.539062 227.324219 " fill-opacity="1" fill-rule="nonzero"/><g clip-path="url(#4b6246c7fe)"><g clip-path="url(#f2e86643af)"><path fill="#5479f7" d="M 433.539062 118.054688 C 415.195312 118.195312 404.5625 141.261719 400.828125 149.359375 C 397.628906 156.304688 391.496094 169.605469 397.011719 176.441406 C 401.480469 181.972656 409.402344 178.078125 433.601562 177.777344 C 458.101562 177.476562 466.1875 181.273438 470.636719 175.550781 C 476.042969 168.59375 469.867188 155.535156 466.644531 148.710938 C 463.140625 141.300781 452.082031 117.910156 433.539062 118.054688 " fill-opacity="1" fill-rule="nonzero"/></g></g><g clip-path="url(#12ec5fd020)"><g clip-path="url(#6a3f426de8)"><path fill="#ffffff" d="M 464.410156 190.609375 L 446.847656 186.582031 L 446.875 162.058594 L 420.355469 161.546875 L 420.230469 186.582031 L 402.667969 190.609375 C 394.367188 192.511719 387.75 198.75 385.382812 206.902344 L 378.683594 242.152344 L 488.394531 242.152344 L 481.695312 206.902344 C 479.328125 198.75 472.710938 192.511719 464.410156 190.609375 " fill-opacity="1" fill-rule="nonzero"/></g></g><g clip-path="url(#c1c49b98a3)"><g clip-path="url(#a9d9084ebb)"><path fill="#000000" d="M 379.726562 241.289062 L 487.351562 241.289062 L 480.851562 207.0625 C 478.589844 199.292969 472.207031 193.277344 464.21875 191.449219 L 446.65625 187.417969 C 446.265625 187.328125 445.988281 186.980469 445.988281 186.578125 L 446.007812 162.902344 L 421.210938 162.429688 L 421.089844 186.585938 C 421.085938 186.984375 420.8125 187.328125 420.421875 187.417969 L 402.863281 191.449219 C 394.871094 193.277344 388.488281 199.292969 386.210938 207.140625 Z M 488.394531 243.011719 L 378.683594 243.011719 C 378.429688 243.011719 378.1875 242.898438 378.023438 242.703125 C 377.859375 242.503906 377.792969 242.246094 377.839844 241.996094 L 384.539062 206.742188 C 387.007812 198.214844 393.875 191.742188 402.476562 189.765625 L 419.371094 185.894531 L 419.496094 161.542969 C 419.496094 161.3125 419.589844 161.09375 419.753906 160.933594 C 419.917969 160.773438 420.148438 160.683594 420.371094 160.6875 L 446.886719 161.195312 C 447.359375 161.203125 447.734375 161.585938 447.734375 162.058594 L 447.710938 185.894531 L 464.601562 189.765625 C 473.203125 191.742188 480.070312 198.214844 482.519531 206.660156 L 489.238281 241.996094 C 489.285156 242.246094 489.21875 242.503906 489.054688 242.703125 C 488.894531 242.898438 488.648438 243.011719 488.394531 243.011719 " fill-opacity="1" fill-rule="nonzero"/></g></g><g clip-path="url(#c0d6195005)"><g clip-path="url(#ce27663dcb)"><path fill="#ffffff" d="M 452.972656 147.484375 C 451.816406 138.488281 444.398438 126.824219 433.539062 126.898438 C 423.0625 126.96875 416.296875 137.925781 414.492188 145.742188 C 412.839844 152.898438 415.035156 158.730469 415.753906 160.453125 C 416.019531 161.089844 422.101562 175.101562 433.539062 174.988281 C 445.425781 174.867188 451.15625 159.605469 451.582031 158.425781 C 452.238281 156.609375 453.628906 152.601562 452.972656 147.484375 " fill-opacity="1" fill-rule="nonzero"/></g></g><g clip-path="url(#2089c01700)"><g clip-path="url(#17ee8cdc7a)"><path fill="#000000" d="M 433.640625 127.757812 C 433.609375 127.757812 433.578125 127.757812 433.542969 127.757812 C 423.316406 127.828125 416.941406 138.945312 415.332031 145.9375 C 413.875 152.246094 415.46875 157.53125 416.546875 160.117188 C 416.609375 160.257812 422.515625 174.128906 433.402344 174.128906 C 433.445312 174.128906 433.484375 174.128906 433.53125 174.128906 C 444.925781 174.011719 450.539062 158.78125 450.773438 158.132812 C 451.367188 156.480469 452.761719 152.609375 452.121094 147.597656 C 451.042969 139.257812 444.03125 127.757812 433.640625 127.757812 Z M 433.394531 175.851562 C 421.378906 175.851562 415.21875 161.398438 414.960938 160.78125 C 413.800781 158 412.089844 152.328125 413.652344 145.550781 C 415.453125 137.746094 422.234375 126.113281 433.535156 126.039062 C 433.570312 126.039062 433.609375 126.039062 433.648438 126.039062 C 445.539062 126.039062 452.714844 138.75 453.824219 147.375 C 454.519531 152.800781 452.976562 157.097656 452.394531 158.71875 C 451.765625 160.457031 445.917969 175.722656 433.546875 175.851562 C 433.496094 175.851562 433.445312 175.851562 433.394531 175.851562 " fill-opacity="1" fill-rule="nonzero"/></g></g><g clip-path="url(#114b0df853)"><g clip-path="url(#6d5cdd04ce)"><path fill="#5479f7" d="M 413.058594 143.894531 C 426.945312 143.949219 440.835938 144.007812 454.726562 144.0625 C 454.675781 142.859375 454.0625 132.210938 445.445312 126.65625 C 440.453125 123.441406 435.242188 123.519531 433.539062 123.570312 C 431.859375 123.617188 426.4375 123.851562 421.375 127.644531 C 413.765625 133.347656 413.132812 142.484375 413.058594 143.894531 " fill-opacity="1" fill-rule="nonzero"/></g></g><path fill="#ffffff" d="M 964.046875 308.632812 L 925.152344 311.59375 C 874.320312 417.667969 813.242188 664.328125 800.023438 713.847656 C 798.59375 719.195312 796.121094 726.910156 792.386719 730.992188 C 787.046875 736.835938 780.242188 741.492188 772.242188 749.640625 C 767.769531 754.191406 771.554688 761.976562 777.929688 761.976562 L 878.855469 761.582031 C 886.011719 761.554688 892.167969 756.511719 893.613281 749.5 L 938.046875 533.941406 L 964.046875 308.632812 " fill-opacity="1" fill-rule="nonzero"/><path fill="#000000" d="M 855.585938 735.144531 C 835.554688 735.144531 815.554688 733.125 795.777344 729.078125 C 795.3125 728.988281 795.011719 728.53125 795.109375 728.066406 C 795.203125 727.601562 795.65625 727.300781 796.121094 727.394531 C 829.429688 734.199219 863.386719 735.25 897.046875 730.515625 C 897.511719 730.441406 897.953125 730.773438 898.019531 731.25 C 898.082031 731.71875 897.757812 732.152344 897.285156 732.21875 C 883.417969 734.171875 869.492188 735.144531 855.585938 735.144531 " fill-opacity="1" fill-rule="nonzero"/><path fill="#000000" d="M 777.9375 762.835938 C 774.515625 762.835938 771.4375 760.757812 770.085938 757.539062 C 768.832031 754.539062 769.421875 751.285156 771.628906 749.03125 C 775.660156 744.929688 779.433594 741.667969 782.765625 738.785156 C 786.171875 735.839844 789.117188 733.292969 791.75 730.414062 C 794.523438 727.382812 797.027344 721.734375 799.191406 713.625 C 800.664062 708.109375 802.714844 700.207031 805.308594 690.207031 C 825.511719 612.355469 879.171875 405.554688 924.375 311.21875 C 924.507812 310.941406 924.777344 310.753906 925.085938 310.730469 L 963.980469 307.773438 C 964.449219 307.738281 964.867188 308.09375 964.902344 308.566406 C 964.9375 309.042969 964.585938 309.457031 964.109375 309.492188 L 925.714844 312.410156 C 880.628906 406.800781 827.132812 612.953125 806.976562 690.636719 C 804.378906 700.644531 802.328125 708.546875 800.855469 714.066406 C 798.617188 722.445312 795.980469 728.339844 793.019531 731.578125 C 790.320312 734.527344 787.195312 737.230469 783.886719 740.089844 C 780.585938 742.945312 776.839844 746.1875 772.855469 750.242188 C 771.117188 752.011719 770.675781 754.492188 771.671875 756.875 C 772.757812 759.453125 775.210938 761.117188 777.929688 761.117188 L 878.851562 760.71875 C 885.5625 760.695312 891.414062 755.902344 892.769531 749.328125 L 937.203125 533.765625 C 937.300781 533.300781 937.753906 533.003906 938.21875 533.097656 C 938.683594 533.195312 938.984375 533.648438 938.886719 534.117188 L 894.457031 749.675781 C 892.9375 757.046875 886.378906 762.414062 878.859375 762.441406 L 777.9375 762.835938 " fill-opacity="1" fill-rule="nonzero"/><path fill="#ffffff" d="M 943.390625 387.601562 C 943.390625 387.601562 936.199219 647.582031 924.886719 717.5 C 923.605469 725.433594 920.117188 732.832031 914.832031 738.882812 L 903.164062 752.234375 C 899.84375 756.03125 902.539062 761.976562 907.582031 761.976562 L 1014.9375 761.976562 C 1022.535156 761.976562 1028.683594 755.808594 1028.652344 748.203125 C 1028.414062 684.746094 1027.277344 433.757812 1028.488281 390.050781 C 1029.863281 340.277344 985.996094 312.265625 985.996094 312.265625 L 964.046875 308.632812 L 943.390625 387.601562 " fill-opacity="1" fill-rule="nonzero"/><path fill="#000000" d="M 983.101562 737.597656 C 962.101562 737.597656 941.121094 735.683594 920.371094 731.859375 C 919.898438 731.773438 919.589844 731.324219 919.675781 730.859375 C 919.761719 730.386719 920.210938 730.074219 920.679688 730.164062 C 955.675781 736.613281 991.324219 737.609375 1026.625 733.117188 C 1027.089844 733.054688 1027.53125 733.390625 1027.585938 733.859375 C 1027.648438 734.332031 1027.3125 734.765625 1026.84375 734.820312 C 1012.296875 736.671875 997.695312 737.597656 983.101562 737.597656 " fill-opacity="1" fill-rule="nonzero"/><path fill="#000000" d="M 944.246094 387.726562 C 944.070312 394 936.847656 648.96875 925.742188 717.640625 C 924.429688 725.722656 920.886719 733.265625 915.480469 739.445312 L 903.8125 752.796875 C 902.5 754.300781 902.199219 756.359375 903.023438 758.175781 C 903.847656 759.988281 905.589844 761.117188 907.582031 761.117188 L 1014.9375 761.117188 C 1018.382812 761.117188 1021.617188 759.773438 1024.046875 757.335938 C 1026.476562 754.894531 1027.808594 751.652344 1027.789062 748.207031 L 1027.714844 727.546875 C 1027.390625 646.148438 1026.523438 429.929688 1027.628906 390.027344 C 1028.933594 342.714844 988.425781 314.910156 985.675781 313.089844 L 964.679688 309.609375 Z M 1014.9375 762.835938 L 907.582031 762.835938 C 904.910156 762.835938 902.5625 761.324219 901.457031 758.886719 C 900.347656 756.449219 900.753906 753.683594 902.515625 751.667969 L 914.1875 738.3125 C 919.375 732.375 922.78125 725.128906 924.039062 717.363281 C 935.214844 648.296875 942.457031 390.175781 942.53125 387.578125 C 942.53125 387.515625 942.542969 387.449219 942.558594 387.386719 L 963.214844 308.414062 C 963.328125 307.984375 963.75 307.703125 964.1875 307.785156 L 986.136719 311.417969 C 986.25 311.433594 986.359375 311.480469 986.457031 311.542969 C 986.902344 311.824219 1030.71875 340.386719 1029.347656 390.074219 C 1028.246094 429.949219 1029.105469 646.152344 1029.429688 727.542969 L 1029.511719 748.199219 C 1029.527344 752.109375 1028.019531 755.78125 1025.265625 758.550781 C 1022.507812 761.316406 1018.84375 762.835938 1014.9375 762.835938 " fill-opacity="1" fill-rule="nonzero"/><path fill="#ffffff" d="M 911.804688 192.789062 C 904.214844 193.394531 897.351562 197.539062 892.214844 203.164062 C 875.1875 221.816406 842.324219 260.542969 842.324219 260.542969 C 842.324219 260.542969 827.175781 235.929688 822.554688 227.933594 C 817.9375 219.941406 792.539062 167.777344 789.757812 163.601562 C 786.636719 158.917969 779.816406 160.125 785.171875 173.582031 L 789.046875 185.921875 C 789.046875 185.921875 782.019531 182.132812 780.507812 190.164062 C 780.507812 190.164062 775.542969 186.996094 774.449219 194.363281 C 774.449219 194.363281 768.507812 191.332031 768.167969 198.5 C 768.054688 200.988281 771.886719 218.441406 771.886719 218.441406 C 771.886719 218.441406 777.050781 238.96875 780.84375 251.78125 C 784.519531 264.207031 803.183594 327.515625 826.113281 331.199219 C 851.65625 335.296875 886.160156 303.472656 886.160156 303.472656 L 815.609375 545.898438 C 853.1875 575.308594 894.597656 575.015625 894.597656 575.015625 L 928.269531 192.535156 C 928.269531 192.535156 915.910156 192.464844 911.804688 192.789062 " fill-opacity="1" fill-rule="nonzero"/><path fill="#000000" d="M 911.804688 192.789062 L 911.8125 192.789062 Z M 816.601562 545.574219 C 850.5625 571.917969 887.972656 573.984375 893.808594 574.144531 L 927.328125 193.390625 C 924.375 193.378906 915.238281 193.378906 911.871094 193.652344 C 905.050781 194.191406 898.296875 197.773438 892.851562 203.742188 C 876.027344 222.171875 843.308594 260.710938 842.980469 261.097656 C 842.804688 261.3125 842.535156 261.425781 842.261719 261.398438 C 841.984375 261.382812 841.734375 261.230469 841.59375 260.992188 C 841.4375 260.746094 826.382812 236.277344 821.8125 228.363281 C 819.550781 224.449219 812.292969 209.925781 805.277344 195.875 C 797.980469 181.273438 790.441406 166.175781 789.042969 164.082031 C 787.957031 162.449219 786.285156 161.597656 785.242188 162.144531 C 783.71875 162.945312 783.355469 166.695312 785.96875 173.265625 L 789.871094 185.664062 C 789.972656 186.003906 789.863281 186.367188 789.597656 186.589844 C 789.324219 186.8125 788.945312 186.847656 788.636719 186.683594 C 788.613281 186.667969 785.902344 185.246094 783.816406 186.246094 C 782.582031 186.839844 781.75 188.210938 781.351562 190.324219 C 781.300781 190.601562 781.109375 190.839844 780.851562 190.953125 C 780.589844 191.0625 780.285156 191.042969 780.046875 190.886719 C 780.03125 190.878906 778.535156 189.960938 777.296875 190.535156 C 776.308594 190.992188 775.617188 192.359375 775.300781 194.488281 C 775.261719 194.761719 775.089844 195 774.84375 195.125 C 774.597656 195.253906 774.308594 195.253906 774.0625 195.128906 C 774.042969 195.117188 771.929688 194.078125 770.515625 194.902344 C 769.617188 195.425781 769.121094 196.652344 769.03125 198.539062 C 768.949219 200.285156 771.199219 211.285156 772.730469 218.253906 C 772.773438 218.433594 777.925781 238.886719 781.667969 251.535156 L 781.703125 251.664062 C 796.039062 300.089844 811.859375 328.035156 826.25 330.34375 C 851.082031 334.339844 885.238281 303.15625 885.578125 302.839844 C 885.863281 302.578125 886.285156 302.539062 886.613281 302.742188 C 886.945312 302.945312 887.09375 303.347656 886.988281 303.714844 Z M 894.585938 575.875 C 893.484375 575.875 852.148438 575.585938 815.082031 546.574219 C 814.804688 546.355469 814.6875 545.996094 814.785156 545.652344 L 884.507812 306.089844 C 876.964844 312.578125 852.160156 332.421875 830.890625 332.425781 C 829.226562 332.425781 827.585938 332.304688 825.976562 332.046875 C 805.628906 328.777344 788.46875 280.585938 780.054688 252.152344 L 780.019531 252.023438 C 776.261719 239.34375 771.105469 218.855469 771.054688 218.648438 C 770.65625 216.828125 767.195312 200.992188 767.3125 198.457031 C 767.429688 195.945312 768.21875 194.246094 769.652344 193.410156 C 771.074219 192.585938 772.738281 192.863281 773.792969 193.183594 C 774.285156 191.003906 775.226562 189.589844 776.589844 188.964844 C 777.804688 188.410156 779.058594 188.640625 779.90625 188.9375 C 780.5 186.839844 781.5625 185.410156 783.082031 184.6875 C 784.683594 183.921875 786.429688 184.132812 787.695312 184.484375 L 784.347656 173.84375 C 780.4375 164.015625 783.109375 161.320312 784.441406 160.621094 C 786.3125 159.636719 788.851562 160.691406 790.476562 163.125 C 791.929688 165.308594 799.164062 179.785156 806.816406 195.105469 C 813.824219 209.128906 821.066406 223.636719 823.304688 227.5 C 827.328125 234.472656 839.539062 254.363281 842.4375 259.082031 C 847.492188 253.136719 876.179688 219.449219 891.578125 202.582031 C 897.324219 196.292969 904.480469 192.511719 911.734375 191.933594 C 915.832031 191.609375 927.769531 191.667969 928.273438 191.671875 C 928.515625 191.671875 928.746094 191.777344 928.90625 191.953125 C 929.066406 192.132812 929.148438 192.371094 929.125 192.609375 L 895.457031 575.09375 C 895.417969 575.539062 895.046875 575.875 894.605469 575.875 C 894.597656 575.875 894.59375 575.875 894.585938 575.875 " fill-opacity="1" fill-rule="nonzero"/><path fill="#000000" d="M 804.84375 217.261719 C 802.476562 217.261719 800.085938 215.863281 798.421875 213.5 C 797.144531 211.675781 796.417969 209.585938 795.71875 207.558594 L 795.476562 206.851562 C 794.78125 204.863281 793.90625 202.609375 792.351562 201.003906 C 791.796875 200.429688 791.160156 199.941406 790.484375 199.417969 C 790.015625 199.054688 789.542969 198.695312 789.101562 198.304688 C 787.625 197.003906 786.78125 195.621094 786.59375 194.199219 C 786.4375 193.015625 786.878906 191.960938 787.726562 191.511719 C 788.78125 190.945312 789.933594 191.511719 790.488281 191.777344 L 804.890625 198.847656 C 805.316406 199.054688 805.492188 199.570312 805.285156 200 C 805.074219 200.425781 804.5625 200.605469 804.132812 200.394531 L 789.730469 193.324219 C 789.484375 193.203125 788.820312 192.875 788.535156 193.03125 C 788.347656 193.128906 788.246094 193.546875 788.300781 193.972656 C 788.429688 194.972656 789.082031 195.996094 790.238281 197.007812 C 790.65625 197.375 791.09375 197.710938 791.539062 198.054688 C 792.230469 198.589844 792.945312 199.144531 793.585938 199.808594 C 795.386719 201.660156 796.34375 204.125 797.101562 206.285156 L 797.347656 206.992188 C 798.007812 208.90625 798.6875 210.886719 799.832031 212.507812 C 800.886719 214.015625 802.785156 215.625 804.960938 215.535156 C 805.445312 215.527344 805.832031 215.898438 805.847656 216.375 C 805.859375 216.847656 805.484375 217.246094 805.011719 217.257812 C 804.957031 217.257812 804.898438 217.261719 804.84375 217.261719 " fill-opacity="1" fill-rule="nonzero"/><path fill="#000000" d="M 789.371094 208.097656 C 788.542969 208.097656 787.679688 207.863281 786.902344 207.402344 C 785.5625 206.605469 784.671875 205.308594 784.121094 204.394531 C 781.5 200.078125 780.703125 194.886719 780.003906 190.3125 C 779.933594 189.84375 780.25 189.402344 780.722656 189.332031 C 781.1875 189.257812 781.628906 189.578125 781.703125 190.054688 C 782.378906 194.46875 783.148438 199.472656 785.59375 203.5 C 786.316406 204.695312 787.011719 205.460938 787.785156 205.925781 C 788.679688 206.457031 789.730469 206.527344 790.453125 206.109375 C 791.269531 205.636719 791.625 204.59375 791.683594 203.78125 C 791.761719 202.71875 791.476562 201.605469 791.199219 200.53125 C 791.078125 200.070312 791.355469 199.597656 791.820312 199.480469 C 792.28125 199.363281 792.75 199.640625 792.867188 200.101562 C 793.164062 201.253906 793.5 202.558594 793.402344 203.90625 C 793.285156 205.527344 792.503906 206.910156 791.3125 207.601562 C 790.742188 207.933594 790.070312 208.097656 789.371094 208.097656 " fill-opacity="1" fill-rule="nonzero"/><path fill="#000000" d="M 783.316406 210.378906 C 782.414062 210.378906 781.476562 210.128906 780.621094 209.636719 C 779.175781 208.808594 778.175781 207.460938 777.550781 206.523438 C 775.105469 202.859375 773.835938 198.417969 773.972656 194.015625 C 773.984375 193.539062 774.378906 193.183594 774.855469 193.179688 C 775.335938 193.195312 775.707031 193.59375 775.691406 194.070312 C 775.566406 198.117188 776.734375 202.203125 778.980469 205.566406 C 779.820312 206.832031 780.617188 207.652344 781.476562 208.144531 C 782.5 208.730469 783.65625 208.824219 784.503906 208.390625 C 785.347656 207.960938 785.804688 206.882812 785.464844 206.136719 C 785.269531 205.699219 785.460938 205.191406 785.890625 204.996094 C 786.324219 204.796875 786.832031 204.988281 787.03125 205.421875 C 787.753906 207.007812 786.957031 209.070312 785.285156 209.925781 C 784.691406 210.230469 784.015625 210.378906 783.316406 210.378906 " fill-opacity="1" fill-rule="nonzero"/><path fill="#000000" d="M 774.214844 213.132812 C 773.335938 213.132812 772.421875 212.871094 771.632812 212.363281 C 770.515625 211.640625 769.628906 210.46875 769.070312 208.96875 C 768.613281 207.75 768.421875 206.492188 768.238281 205.09375 C 768.175781 204.625 768.507812 204.191406 768.976562 204.128906 C 769.449219 204.070312 769.878906 204.398438 769.941406 204.871094 C 770.117188 206.160156 770.285156 207.3125 770.683594 208.367188 C 770.980469 209.167969 771.550781 210.261719 772.5625 210.917969 C 773.425781 211.464844 774.519531 211.570312 775.289062 211.164062 C 775.992188 210.796875 776.527344 210.003906 776.753906 208.984375 C 776.976562 207.972656 776.902344 206.863281 776.828125 205.792969 C 776.792969 205.3125 777.152344 204.902344 777.628906 204.871094 C 778.097656 204.847656 778.511719 205.195312 778.542969 205.671875 C 778.625 206.8125 778.714844 208.105469 778.433594 209.359375 C 778.097656 210.871094 777.238281 212.085938 776.089844 212.6875 C 775.519531 212.984375 774.875 213.132812 774.214844 213.132812 " fill-opacity="1" fill-rule="nonzero"/><path fill="#000000" d="M 793.957031 270.390625 C 791.527344 270.390625 789.109375 270.1875 786.730469 269.773438 C 786.261719 269.691406 785.949219 269.246094 786.03125 268.773438 C 786.113281 268.308594 786.5625 268 787.027344 268.074219 C 803.816406 271.007812 823.285156 262.371094 833.3125 247.546875 C 833.582031 247.152344 834.113281 247.046875 834.507812 247.3125 C 834.902344 247.582031 835.007812 248.117188 834.738281 248.511719 C 825.601562 262.023438 809.582031 270.390625 793.957031 270.390625 " fill-opacity="1" fill-rule="nonzero"/><path fill="#000000" d="M 856.871094 287.144531 C 856.570312 287.144531 856.28125 286.984375 856.121094 286.707031 L 841.875 261.355469 C 841.636719 260.9375 841.789062 260.414062 842.203125 260.179688 C 842.617188 259.949219 843.140625 260.097656 843.371094 260.507812 L 857.621094 285.863281 C 857.851562 286.277344 857.707031 286.800781 857.292969 287.035156 C 857.160156 287.109375 857.015625 287.144531 856.871094 287.144531 " fill-opacity="1" fill-rule="nonzero"/><path fill="#000000" d="M 887.492188 301.382812 C 887.429688 301.382812 887.359375 301.375 887.300781 301.363281 C 886.832031 301.257812 886.542969 300.792969 886.648438 300.332031 L 893.375 270.945312 C 893.480469 270.480469 893.9375 270.191406 894.402344 270.296875 C 894.867188 270.402344 895.15625 270.863281 895.050781 271.328125 L 888.328125 300.714844 C 888.238281 301.117188 887.882812 301.382812 887.492188 301.382812 " fill-opacity="1" fill-rule="nonzero"/><path fill="#5479f7" d="M 985.328125 208.414062 L 975.796875 191.601562 C 975.796875 191.601562 951.183594 189.746094 927.121094 191.40625 C 924.335938 191.597656 921.804688 193.742188 920.726562 196.324219 L 906.660156 230.015625 C 901.738281 241.808594 899.945312 254.671875 901.453125 267.359375 L 905.394531 300.523438 L 989.910156 304.675781 L 985.328125 208.414062 " fill-opacity="1" fill-rule="nonzero"/><path fill="#ffffff" d="M 967.628906 575.015625 L 967.628906 190.472656 C 967.628906 190.472656 997.785156 191.144531 1014.878906 220.386719 C 1030.507812 247.113281 1030.652344 300.523438 1030.652344 300.523438 L 1016.800781 308.839844 L 1059.742188 549.179688 C 1059.742188 549.179688 1019.917969 570.488281 967.628906 575.015625 " fill-opacity="1" fill-rule="nonzero"/><path fill="#000000" d="M 967.628906 575.875 C 967.414062 575.875 967.207031 575.796875 967.050781 575.652344 C 966.871094 575.488281 966.769531 575.257812 966.769531 575.015625 L 966.769531 381.21875 C 966.769531 380.738281 967.15625 380.355469 967.628906 380.355469 C 968.105469 380.355469 968.492188 380.738281 968.492188 381.21875 L 968.492188 574.078125 C 1016.257812 569.738281 1053.828125 551.242188 1058.785156 548.707031 L 1015.957031 308.992188 C 1015.890625 308.640625 1016.054688 308.285156 1016.359375 308.101562 L 1029.785156 300.039062 C 1029.714844 294.621094 1028.675781 245.695312 1014.136719 220.820312 C 997.480469 192.324219 967.910156 191.339844 967.609375 191.332031 C 967.136719 191.320312 966.761719 190.929688 966.769531 190.453125 C 966.78125 189.980469 967.171875 189.574219 967.652344 189.609375 C 967.953125 189.617188 998.484375 190.632812 1015.625 219.953125 C 1031.183594 246.574219 1031.511719 299.984375 1031.511719 300.519531 C 1031.515625 300.824219 1031.355469 301.101562 1031.097656 301.257812 L 1017.753906 309.273438 L 1060.585938 549.027344 C 1060.65625 549.394531 1060.472656 549.761719 1060.144531 549.9375 C 1059.746094 550.15625 1019.570312 571.378906 967.707031 575.875 C 967.679688 575.875 967.652344 575.875 967.628906 575.875 " fill-opacity="1" fill-rule="nonzero"/><path fill="#000000" d="M 1012.917969 380.421875 L 946.078125 394.933594 C 942.6875 395.671875 939.242188 393.941406 937.800781 390.78125 L 895 296.984375 C 893.015625 292.636719 895.554688 287.566406 900.21875 286.554688 L 965.339844 272.414062 C 968.777344 271.671875 972.269531 273.417969 973.730469 276.621094 L 1017.195312 371.878906 C 1018.820312 375.441406 1016.742188 379.59375 1012.917969 380.421875 " fill-opacity="1" fill-rule="nonzero"/><path fill="#ffffff" d="M 981.074219 252.308594 C 981.074219 252.308594 1002.066406 204.839844 1002.75 205.460938 C 1003.433594 206.082031 1046.109375 246.847656 1053.375 290.300781 C 1060.640625 333.757812 1032.078125 349.457031 986.691406 365.976562 C 941.292969 382.5 930.125 384.398438 931.664062 377.335938 C 931.664062 377.335938 926.273438 376.71875 925.285156 371.925781 C 925.285156 371.925781 920 369.777344 919.339844 364.984375 C 919.339844 364.984375 907.707031 359.96875 918.476562 348.433594 L 921.109375 354.203125 C 921.109375 354.203125 935.1875 351.933594 940.46875 347.140625 C 945.75 342.347656 942.285156 338.878906 939.480469 337.558594 C 936.671875 336.234375 928.417969 330.289062 929.902344 326.984375 C 931.390625 323.679688 944.597656 328.800781 949.382812 328.632812 C 954.171875 328.46875 995.765625 308.308594 1006.496094 300.523438 C 1006.496094 300.523438 992.464844 267.351562 981.074219 252.308594 " fill-opacity="1" fill-rule="nonzero"/><path fill="#000000" d="M 935.8125 382.066406 C 933.839844 382.066406 932.53125 381.691406 931.71875 380.980469 C 930.925781 380.285156 930.582031 379.296875 930.691406 378.023438 C 929.035156 377.625 925.558594 376.34375 924.542969 372.539062 C 923.25 371.910156 919.386719 369.71875 918.566406 365.566406 C 917.351562 364.9375 914.003906 362.878906 913.210938 359.097656 C 912.496094 355.691406 914.058594 351.90625 917.84375 347.847656 C 918.046875 347.636719 918.332031 347.539062 918.613281 347.585938 C 918.898438 347.628906 919.140625 347.816406 919.257812 348.074219 L 921.617188 353.242188 C 924.40625 352.730469 935.488281 350.496094 939.890625 346.5 C 941.714844 344.847656 942.535156 343.285156 942.324219 341.863281 C 942.023438 339.851562 939.789062 338.65625 939.109375 338.335938 C 936.886719 337.292969 927.199219 330.898438 929.117188 326.628906 C 930.347656 323.90625 935.925781 325.167969 941.835938 326.503906 C 944.851562 327.1875 947.703125 327.828125 949.355469 327.777344 C 953.777344 327.625 993.875 308.285156 1005.429688 300.222656 C 1003.425781 295.558594 990.71875 266.476562 980.390625 252.828125 C 980.105469 252.449219 980.179688 251.910156 980.558594 251.625 C 980.933594 251.332031 981.472656 251.410156 981.761719 251.789062 C 993.085938 266.746094 1007.148438 299.855469 1007.289062 300.1875 C 1007.445312 300.554688 1007.324219 300.984375 1007 301.222656 C 996.691406 308.699219 954.710938 329.3125 949.414062 329.496094 C 947.535156 329.570312 944.582031 328.890625 941.457031 328.183594 C 937.671875 327.328125 931.335938 325.894531 930.691406 327.335938 C 929.609375 329.738281 936.636719 335.269531 939.847656 336.777344 C 940.71875 337.1875 943.597656 338.753906 944.023438 341.609375 C 944.328125 343.636719 943.324219 345.710938 941.046875 347.78125 C 935.636719 352.683594 921.832031 354.960938 921.246094 355.058594 C 920.867188 355.117188 920.484375 354.917969 920.324219 354.5625 L 918.242188 349.988281 C 915.480469 353.234375 914.355469 356.171875 914.894531 358.742188 C 915.667969 362.425781 919.640625 364.175781 919.679688 364.195312 C 919.957031 364.3125 920.148438 364.566406 920.191406 364.871094 C 920.777344 369.09375 925.5625 371.109375 925.609375 371.128906 C 925.875 371.238281 926.066406 371.472656 926.125 371.753906 C 926.980469 375.882812 931.714844 376.472656 931.761719 376.480469 C 932.003906 376.507812 932.222656 376.640625 932.367188 376.835938 C 932.507812 377.035156 932.558594 377.285156 932.507812 377.519531 C 932.199219 378.921875 932.558594 379.425781 932.851562 379.683594 C 936.1875 382.597656 956.667969 375.988281 986.394531 365.167969 C 1028.386719 349.882812 1059.917969 334.675781 1052.527344 290.445312 C 1045.347656 247.503906 1002.601562 206.488281 1002.175781 206.101562 C 1001.824219 205.777344 1001.796875 205.234375 1002.113281 204.882812 C 1002.433594 204.53125 1002.976562 204.503906 1003.328125 204.824219 C 1003.761719 205.210938 1046.824219 245.886719 1054.226562 290.160156 C 1061.835938 335.699219 1029.738281 351.222656 986.984375 366.785156 C 957.351562 377.570312 942.621094 382.066406 935.8125 382.066406 " fill-opacity="1" fill-rule="nonzero"/><path fill="#000000" d="M 985.984375 364.191406 C 985.976562 364.191406 985.96875 364.191406 985.964844 364.191406 C 985.488281 364.179688 985.113281 363.789062 985.125 363.316406 C 985.445312 348.523438 980.042969 333.664062 970.300781 322.539062 C 969.984375 322.183594 970.027344 321.640625 970.382812 321.328125 C 970.738281 321.015625 971.28125 321.050781 971.59375 321.40625 C 981.617188 332.847656 987.175781 348.136719 986.84375 363.351562 C 986.832031 363.820312 986.449219 364.191406 985.984375 364.191406 " fill-opacity="1" fill-rule="nonzero"/><path fill="#000000" d="M 1007.949219 300.941406 C 1007.679688 300.941406 1007.414062 300.808594 1007.246094 300.570312 C 1006.972656 300.179688 1007.066406 299.644531 1007.457031 299.375 C 1010.496094 297.238281 1013.386719 294.839844 1016.03125 292.234375 C 1016.371094 291.902344 1016.914062 291.90625 1017.246094 292.246094 C 1017.582031 292.582031 1017.574219 293.128906 1017.238281 293.464844 C 1014.523438 296.132812 1011.5625 298.59375 1008.441406 300.78125 C 1008.292969 300.886719 1008.121094 300.941406 1007.949219 300.941406 " fill-opacity="1" fill-rule="nonzero"/><path fill="#000000" d="M 933.402344 378.246094 C 932.730469 378.246094 932.058594 378.226562 931.390625 378.179688 C 930.917969 378.148438 930.558594 377.738281 930.589844 377.265625 C 930.621094 376.789062 931.039062 376.449219 931.503906 376.460938 C 937.414062 376.859375 943.460938 375.398438 948.539062 372.347656 C 948.949219 372.101562 949.476562 372.234375 949.71875 372.644531 C 949.964844 373.054688 949.832031 373.582031 949.425781 373.824219 C 944.625 376.703125 939 378.246094 933.402344 378.246094 " fill-opacity="1" fill-rule="nonzero"/><path fill="#000000" d="M 927.492188 372.796875 C 926.667969 372.796875 925.839844 372.769531 925.015625 372.699219 C 924.542969 372.664062 924.1875 372.25 924.222656 371.777344 C 924.261719 371.304688 924.667969 370.953125 925.152344 370.988281 C 931.421875 371.46875 937.867188 369.988281 943.292969 366.808594 C 943.707031 366.570312 944.234375 366.710938 944.472656 367.121094 C 944.714844 367.53125 944.574219 368.054688 944.164062 368.296875 C 939.144531 371.234375 933.3125 372.796875 927.492188 372.796875 " fill-opacity="1" fill-rule="nonzero"/><path fill="#000000" d="M 926.394531 367.03125 C 924.015625 367.03125 921.640625 366.714844 919.339844 366.082031 C 918.882812 365.953125 918.617188 365.480469 918.742188 365.019531 C 918.867188 364.5625 919.339844 364.296875 919.800781 364.421875 C 926.8125 366.359375 934.589844 365.078125 940.613281 360.988281 C 941.003906 360.71875 941.539062 360.824219 941.808594 361.21875 C 942.074219 361.609375 941.96875 362.144531 941.578125 362.410156 C 937.121094 365.441406 931.757812 367.03125 926.394531 367.03125 " fill-opacity="1" fill-rule="nonzero"/><path fill="#000000" d="M 921.101562 157.027344 C 921.101562 157.027344 888.71875 148.222656 898.222656 121.796875 C 905.199219 102.394531 939.050781 90.792969 959.464844 117.570312 C 959.464844 117.570312 990.789062 116.515625 973.546875 153.152344 C 973.546875 153.152344 965.527344 169.246094 949.730469 170.339844 C 941.855469 170.882812 921.101562 157.027344 921.101562 157.027344 " fill-opacity="1" fill-rule="nonzero"/><path fill="#000000" d="M 958.859375 87.785156 C 968.453125 98.507812 969.449219 113.285156 961.078125 120.785156 C 952.714844 128.28125 938.152344 125.667969 928.558594 114.945312 C 918.964844 104.21875 917.96875 89.445312 926.335938 81.945312 C 934.703125 74.445312 949.265625 77.058594 958.859375 87.785156 " fill-opacity="1" fill-rule="nonzero"/><path fill="#000000" d="M 977.882812 78.457031 C 985.765625 90.503906 984.539062 105.257812 975.148438 111.421875 C 965.753906 117.582031 951.75 112.816406 943.863281 100.777344 C 935.980469 88.734375 937.203125 73.976562 946.601562 67.8125 C 955.992188 61.652344 969.996094 66.421875 977.882812 78.457031 " fill-opacity="1" fill-rule="nonzero"/><path fill="#000000" d="M 979.378906 91.296875 C 990.375 100.582031 993.414062 115.070312 986.171875 123.664062 C 978.933594 132.261719 964.152344 131.699219 953.15625 122.417969 C 942.164062 113.136719 939.117188 98.644531 946.363281 90.050781 C 953.601562 81.457031 968.386719 82.019531 979.378906 91.296875 " fill-opacity="1" fill-rule="nonzero"/><path fill="#000000" d="M 992.453125 75.785156 C 1003.445312 85.066406 1006.488281 99.558594 999.25 108.152344 C 992.007812 116.746094 977.222656 116.183594 966.230469 106.90625 C 955.234375 97.621094 952.191406 83.132812 959.433594 74.535156 C 966.675781 65.941406 981.457031 66.503906 992.453125 75.785156 " fill-opacity="1" fill-rule="nonzero"/><path fill="#ffffff" d="M 944.855469 157.753906 L 964.96875 190.472656 L 925.777344 233.585938 L 929.503906 195.28125 L 936.554688 191.320312 L 924.207031 171.3125 L 944.855469 157.753906 " fill-opacity="1" fill-rule="nonzero"/><path fill="#000000" d="M 933.347656 193.980469 C 933.046875 193.980469 932.757812 193.820312 932.597656 193.539062 C 932.367188 193.128906 932.515625 192.605469 932.925781 192.371094 L 935.351562 191.007812 L 923.472656 171.769531 C 923.226562 171.363281 923.347656 170.835938 923.75 170.585938 L 944.65625 157.507812 C 944.847656 157.386719 945.082031 157.347656 945.308594 157.402344 C 945.53125 157.453125 945.722656 157.59375 945.84375 157.789062 L 965.703125 190.023438 C 965.953125 190.425781 965.828125 190.957031 965.421875 191.207031 C 965.015625 191.453125 964.488281 191.328125 964.238281 190.925781 L 944.832031 159.429688 L 925.390625 171.589844 L 937.289062 190.867188 C 937.40625 191.066406 937.449219 191.308594 937.390625 191.535156 C 937.332031 191.765625 937.183594 191.953125 936.972656 192.074219 L 933.769531 193.875 C 933.636719 193.945312 933.492188 193.980469 933.347656 193.980469 " fill-opacity="1" fill-rule="nonzero"/><path fill="#ffffff" d="M 947.363281 161.6875 C 947.363281 161.6875 936.964844 178.582031 916.453125 176.03125 C 896 173.480469 913.90625 129.082031 913.90625 129.082031 C 913.90625 129.082031 916.355469 134.1875 926.953125 133.402344 C 937.550781 132.617188 944.421875 134.777344 939.90625 145.582031 C 935.390625 156.386719 945.421875 151.664062 945.421875 151.664062 C 945.421875 151.664062 955.113281 142.34375 958.941406 148.726562 C 962.765625 155.109375 956.097656 163.457031 947.363281 161.6875 " fill-opacity="1" fill-rule="nonzero"/><path fill="#000000" d="M 914.160156 130.824219 C 911.902344 136.882812 903.679688 160.675781 909.625 170.777344 C 911.128906 173.34375 913.398438 174.78125 916.5625 175.175781 C 936.289062 177.628906 946.53125 161.402344 946.628906 161.238281 C 946.820312 160.929688 947.179688 160.777344 947.535156 160.847656 C 951.519531 161.652344 955.515625 160.160156 957.71875 157.046875 C 959.484375 154.550781 959.664062 151.605469 958.199219 149.167969 C 957.570312 148.109375 956.742188 147.527344 955.667969 147.386719 C 952.386719 146.941406 947.585938 150.773438 946.015625 152.285156 C 945.949219 152.351562 945.871094 152.402344 945.785156 152.445312 C 945.292969 152.675781 940.898438 154.660156 938.824219 152.679688 C 937.472656 151.378906 937.566406 148.953125 939.109375 145.25 C 940.707031 141.429688 940.875 138.605469 939.613281 136.855469 C 937.992188 134.601562 933.871094 133.753906 927.015625 134.265625 C 919.394531 134.832031 915.738281 132.4375 914.160156 130.824219 Z M 920.582031 177.148438 C 919.21875 177.148438 917.808594 177.066406 916.347656 176.882812 C 912.671875 176.425781 909.914062 174.667969 908.140625 171.648438 C 900.90625 159.355469 912.605469 130 913.105469 128.761719 C 913.230469 128.445312 913.539062 128.234375 913.878906 128.21875 C 914.210938 128.183594 914.53125 128.402344 914.679688 128.710938 C 914.699219 128.746094 917.097656 133.265625 926.886719 132.546875 C 934.492188 131.976562 938.980469 133.03125 941.007812 135.847656 C 942.667969 138.152344 942.566406 141.441406 940.699219 145.914062 C 939.53125 148.714844 939.277344 150.730469 940.015625 151.433594 C 940.949219 152.328125 943.648438 151.515625 944.933594 150.941406 C 945.804688 150.125 951.414062 145.078125 955.894531 145.679688 C 957.5 145.894531 958.773438 146.769531 959.679688 148.285156 C 961.5 151.320312 961.292969 154.972656 959.125 158.042969 C 956.636719 161.5625 952.226562 163.332031 947.761719 162.636719 C 945.949219 165.234375 936.75 177.148438 920.582031 177.148438 " fill-opacity="1" fill-rule="nonzero"/><path fill="#000000" d="M 947.199219 157.671875 C 946.972656 157.671875 946.746094 157.585938 946.578125 157.40625 C 946.246094 157.0625 946.257812 156.519531 946.601562 156.191406 C 948.421875 154.460938 950.898438 153.402344 953.40625 153.296875 C 953.875 153.265625 954.285156 153.644531 954.304688 154.121094 C 954.324219 154.597656 953.957031 154.996094 953.476562 155.015625 C 951.386719 155.105469 949.3125 155.992188 947.792969 157.4375 C 947.625 157.59375 947.414062 157.671875 947.199219 157.671875 " fill-opacity="1" fill-rule="nonzero"/></svg>