<svg xmlns="http://www.w3.org/2000/svg" xmlns:xlink="http://www.w3.org/1999/xlink" width="1920" zoomAndPan="magnify" viewBox="0 0 1440 809.999993" height="1080" preserveAspectRatio="xMidYMid meet" version="1.0"><defs><clipPath id="16feee1eff"><path d="M 206.515625 630 L 1105 630 L 1105 658 L 206.515625 658 Z M 206.515625 630 " clip-rule="nonzero"/></clipPath><clipPath id="4b11db7326"><path d="M 206.515625 579 L 1105 579 L 1105 633 L 206.515625 633 Z M 206.515625 579 " clip-rule="nonzero"/></clipPath><clipPath id="843ce7ae11"><path d="M 924 728 L 1232 728 L 1232 747.617188 L 924 747.617188 Z M 924 728 " clip-rule="nonzero"/></clipPath></defs><path fill="#e2eaff" d="M 1153.429688 76.171875 C 1153.132812 76.882812 1152.910156 77.589844 1152.722656 78.300781 C 1145.144531 77.21875 1137.570312 77.292969 1130.214844 78.449219 C 1130.027344 77.742188 1129.769531 77.03125 1129.46875 76.324219 C 1125.511719 66.917969 1114.652344 62.515625 1105.246094 66.472656 C 1095.839844 70.425781 1091.4375 81.285156 1095.390625 90.691406 C 1095.691406 91.398438 1096.027344 92.070312 1096.398438 92.707031 C 1090.429688 97.183594 1085.089844 102.558594 1080.574219 108.714844 C 1079.941406 108.339844 1079.269531 108.003906 1078.558594 107.746094 C 1069.117188 103.902344 1058.292969 108.453125 1054.449219 117.894531 C 1050.601562 127.375 1055.15625 138.160156 1064.601562 142 C 1065.308594 142.300781 1066.019531 142.523438 1066.726562 142.710938 C 1065.644531 150.285156 1065.71875 157.863281 1066.875 165.214844 C 1066.167969 165.398438 1065.457031 165.660156 1064.75 165.960938 C 1055.34375 169.914062 1050.9375 180.773438 1054.894531 190.179688 C 1058.851562 199.582031 1069.714844 203.988281 1079.117188 200.03125 C 1079.828125 199.734375 1080.5 199.398438 1081.132812 199.023438 C 1085.574219 204.996094 1090.949219 210.332031 1097.144531 214.847656 C 1096.773438 215.480469 1096.4375 216.152344 1096.175781 216.863281 C 1092.332031 226.339844 1096.886719 237.125 1106.328125 240.96875 C 1115.769531 244.8125 1126.59375 240.257812 1130.441406 230.816406 C 1130.738281 230.109375 1130.960938 229.398438 1131.148438 228.691406 C 1138.726562 229.773438 1146.300781 229.699219 1153.65625 228.542969 C 1153.839844 229.25 1154.101562 229.960938 1154.402344 230.667969 C 1158.359375 240.074219 1169.21875 244.476562 1178.625 240.519531 C 1188.03125 236.566406 1192.433594 225.707031 1188.476562 216.300781 C 1188.179688 215.59375 1187.84375 214.921875 1187.46875 214.285156 C 1193.441406 209.808594 1198.78125 204.433594 1203.296875 198.277344 C 1203.929688 198.648438 1204.601562 198.984375 1205.3125 199.246094 C 1214.753906 203.089844 1225.578125 198.539062 1229.421875 189.097656 C 1233.265625 179.617188 1228.714844 168.832031 1219.269531 164.988281 C 1218.5625 164.691406 1217.851562 164.46875 1217.144531 164.28125 C 1218.226562 156.707031 1218.152344 149.128906 1216.992188 141.777344 C 1217.703125 141.589844 1218.414062 141.332031 1219.121094 141.03125 C 1228.527344 137.074219 1232.929688 126.214844 1228.976562 116.8125 C 1225.019531 107.410156 1214.15625 103.003906 1204.75 106.960938 C 1204.042969 107.257812 1203.371094 107.59375 1202.734375 107.96875 C 1198.292969 101.996094 1192.921875 96.660156 1186.722656 92.144531 C 1187.097656 91.511719 1187.433594 90.839844 1187.695312 90.128906 C 1191.539062 80.652344 1186.984375 69.867188 1177.542969 66.023438 C 1168.0625 62.179688 1157.277344 66.695312 1153.429688 76.171875 Z M 1173.734375 166.40625 C 1166.570312 183.984375 1146.5625 192.417969 1128.984375 185.289062 C 1111.402344 178.164062 1102.96875 158.125 1110.136719 140.546875 C 1117.300781 122.96875 1137.308594 114.535156 1154.886719 121.664062 C 1172.429688 128.828125 1180.863281 148.867188 1173.734375 166.40625 Z M 1173.734375 166.40625 " fill-opacity="1" fill-rule="nonzero"/><path fill="#e2eaff" d="M 1063.964844 253.359375 C 1063.929688 253.84375 1063.964844 254.328125 1064.003906 254.8125 C 1059.113281 255.820312 1054.484375 257.5 1050.230469 259.851562 C 1049.929688 259.441406 1049.632812 259.066406 1049.296875 258.695312 C 1044.816406 253.804688 1037.203125 253.46875 1032.277344 257.984375 C 1027.386719 262.464844 1027.050781 270.113281 1031.566406 275.003906 C 1031.902344 275.375 1032.277344 275.710938 1032.613281 276.011719 C 1029.925781 280.039062 1027.835938 284.519531 1026.453125 289.296875 C 1025.96875 289.21875 1025.484375 289.144531 1025 289.144531 C 1018.355469 288.847656 1012.757812 294.035156 1012.457031 300.675781 C 1012.160156 307.320312 1017.347656 312.917969 1023.953125 313.214844 C 1024.4375 313.253906 1024.925781 313.214844 1025.410156 313.179688 C 1026.417969 318.066406 1028.097656 322.695312 1030.449219 326.949219 C 1030.039062 327.246094 1029.664062 327.546875 1029.292969 327.882812 C 1024.402344 332.359375 1024.066406 340.011719 1028.582031 344.898438 C 1033.0625 349.789062 1040.675781 350.125 1045.601562 345.609375 C 1045.976562 345.273438 1046.3125 344.898438 1046.609375 344.5625 C 1050.640625 347.25 1055.121094 349.339844 1059.898438 350.757812 C 1059.824219 351.242188 1059.746094 351.726562 1059.746094 352.214844 C 1059.449219 358.855469 1064.636719 364.453125 1071.242188 364.75 C 1077.886719 365.050781 1083.484375 359.863281 1083.785156 353.21875 C 1083.820312 352.734375 1083.785156 352.25 1083.746094 351.765625 C 1088.636719 350.757812 1093.265625 349.078125 1097.519531 346.726562 C 1097.816406 347.136719 1098.117188 347.511719 1098.453125 347.882812 C 1102.933594 352.773438 1110.546875 353.109375 1115.472656 348.59375 C 1120.398438 344.078125 1120.699219 336.464844 1116.183594 331.578125 C 1115.847656 331.203125 1115.472656 330.867188 1115.136719 330.570312 C 1117.824219 326.539062 1119.914062 322.058594 1121.296875 317.285156 C 1121.78125 317.359375 1122.265625 317.433594 1122.75 317.433594 C 1129.394531 317.730469 1134.992188 312.542969 1135.292969 305.902344 C 1135.589844 299.257812 1130.402344 293.660156 1123.796875 293.363281 C 1123.3125 293.324219 1122.824219 293.363281 1122.339844 293.398438 C 1121.332031 288.511719 1119.652344 283.882812 1117.300781 279.628906 C 1117.710938 279.332031 1118.085938 279.03125 1118.457031 278.695312 C 1123.347656 274.21875 1123.683594 266.570312 1119.167969 261.679688 C 1114.6875 256.792969 1107.074219 256.457031 1102.148438 260.972656 C 1101.773438 261.308594 1101.4375 261.679688 1101.140625 262.015625 C 1097.109375 259.328125 1092.628906 257.238281 1087.851562 255.820312 C 1087.925781 255.335938 1088.003906 254.851562 1088.003906 254.367188 C 1088.300781 247.722656 1083.113281 242.125 1076.507812 241.828125 C 1069.863281 241.566406 1064.265625 246.714844 1063.964844 253.359375 Z M 1096.214844 304.183594 C 1095.691406 316.5 1085.277344 326.089844 1072.921875 325.566406 C 1060.605469 325.046875 1051.015625 314.632812 1051.535156 302.28125 C 1052.058594 289.96875 1062.472656 280.375 1074.828125 280.898438 C 1087.179688 281.457031 1096.734375 291.871094 1096.214844 304.183594 Z M 1096.214844 304.183594 " fill-opacity="1" fill-rule="nonzero"/><path fill="#ffffff" d="M 972.820312 580.1875 L 322.109375 580.1875 C 313.039062 580.1875 305.6875 572.835938 305.6875 563.765625 L 305.6875 134.238281 C 305.6875 125.171875 313.039062 117.820312 322.109375 117.820312 L 972.820312 117.820312 C 981.890625 117.820312 989.242188 125.171875 989.242188 134.238281 L 989.242188 563.730469 C 989.28125 572.796875 981.890625 580.1875 972.820312 580.1875 Z M 972.820312 580.1875 " fill-opacity="1" fill-rule="nonzero"/><path fill="#000000" d="M 972.820312 581.007812 L 322.109375 581.007812 C 312.59375 581.007812 304.867188 573.285156 304.867188 563.765625 L 304.867188 134.238281 C 304.867188 124.722656 312.59375 117 322.109375 117 L 972.820312 117 C 982.335938 117 990.0625 124.722656 990.0625 134.238281 L 990.0625 563.730469 C 990.101562 573.246094 982.335938 581.007812 972.820312 581.007812 Z M 322.109375 118.640625 C 313.488281 118.640625 306.507812 125.65625 306.507812 134.238281 L 306.507812 563.730469 C 306.507812 572.351562 313.527344 579.328125 322.109375 579.328125 L 972.820312 579.328125 C 981.441406 579.328125 988.421875 572.3125 988.421875 563.730469 L 988.421875 134.238281 C 988.421875 125.621094 981.402344 118.640625 972.820312 118.640625 Z M 322.109375 118.640625 " fill-opacity="1" fill-rule="nonzero"/><path fill="#000000" d="M 327.859375 304.074219 C 327.410156 304.074219 327.039062 303.699219 327.039062 303.253906 L 327.039062 158.496094 C 327.039062 150.808594 333.308594 144.539062 340.996094 144.539062 L 857.226562 144.539062 C 857.675781 144.539062 858.046875 144.914062 858.046875 145.359375 C 858.046875 145.808594 857.675781 146.179688 857.226562 146.179688 L 340.996094 146.179688 C 334.203125 146.179688 328.679688 151.703125 328.679688 158.496094 L 328.679688 303.253906 C 328.679688 303.699219 328.304688 304.074219 327.859375 304.074219 Z M 327.859375 304.074219 " fill-opacity="1" fill-rule="nonzero"/><path fill="#000000" d="M 953.933594 555.109375 L 565.574219 555.109375 C 565.128906 555.109375 564.753906 554.738281 564.753906 554.289062 C 564.753906 553.839844 565.128906 553.46875 565.574219 553.46875 L 953.933594 553.46875 C 960.726562 553.46875 966.25 547.945312 966.25 541.152344 L 966.25 325.644531 C 966.25 325.195312 966.625 324.820312 967.070312 324.820312 C 967.519531 324.820312 967.894531 325.195312 967.894531 325.644531 L 967.894531 541.152344 C 967.929688 548.839844 961.660156 555.109375 953.933594 555.109375 Z M 953.933594 555.109375 " fill-opacity="1" fill-rule="nonzero"/><path fill="#ffffff" d="M 1103.9375 631.3125 L 1092.855469 643.105469 C 1084.941406 651.539062 1067.734375 656.949219 1048.773438 656.949219 L 262.578125 656.949219 C 243.65625 656.949219 226.449219 651.539062 218.5 643.105469 L 207.414062 631.3125 Z M 1103.9375 631.3125 " fill-opacity="1" fill-rule="nonzero"/><g clip-path="url(#16feee1eff)"><path fill="#000000" d="M 1048.8125 657.808594 L 262.578125 657.808594 C 243.503906 657.808594 225.964844 652.246094 217.902344 643.703125 L 206.816406 631.871094 C 206.515625 631.535156 206.515625 631.015625 206.851562 630.714844 C 207.1875 630.417969 207.710938 630.417969 208.011719 630.753906 L 219.097656 642.546875 C 226.859375 650.792969 243.917969 656.128906 262.542969 656.128906 L 1048.8125 656.128906 C 1067.472656 656.128906 1084.53125 650.792969 1092.257812 642.546875 L 1103.34375 630.753906 C 1103.640625 630.417969 1104.164062 630.417969 1104.5 630.714844 C 1104.835938 631.015625 1104.835938 631.535156 1104.535156 631.871094 L 1093.453125 643.664062 C 1085.425781 652.285156 1067.921875 657.808594 1048.8125 657.808594 Z M 1048.8125 657.808594 " fill-opacity="1" fill-rule="nonzero"/></g><path fill="#ffffff" d="M 292.214844 631.460938 L 207.449219 631.460938 L 335.808594 580.335938 L 975.582031 580.335938 L 1103.9375 631.460938 Z M 292.214844 631.460938 " fill-opacity="1" fill-rule="nonzero"/><g clip-path="url(#4b11db7326)"><path fill="#000000" d="M 1103.9375 632.28125 L 451.699219 632.28125 C 451.25 632.28125 450.878906 631.910156 450.878906 631.460938 C 450.878906 631.015625 451.25 630.640625 451.699219 630.640625 L 1099.648438 630.640625 L 975.433594 581.15625 L 335.957031 581.15625 L 211.742188 630.640625 L 292.214844 630.640625 C 292.660156 630.640625 293.035156 631.015625 293.035156 631.460938 C 293.035156 631.910156 292.660156 632.28125 292.214844 632.28125 L 207.449219 632.28125 C 207.039062 632.28125 206.703125 632.023438 206.628906 631.609375 C 206.554688 631.238281 206.777344 630.828125 207.113281 630.679688 L 335.433594 579.554688 C 335.546875 579.515625 335.621094 579.476562 335.734375 579.476562 L 975.542969 579.476562 C 975.65625 579.476562 975.769531 579.515625 975.84375 579.554688 L 1104.164062 630.679688 C 1104.535156 630.828125 1104.722656 631.199219 1104.648438 631.609375 C 1104.648438 631.984375 1104.3125 632.28125 1103.9375 632.28125 Z M 1103.9375 632.28125 " fill-opacity="1" fill-rule="nonzero"/></g><path fill="#e2eaff" d="M 830.351562 624.183594 L 464.578125 624.183594 L 517.949219 602.953125 L 777.015625 602.953125 Z M 830.351562 624.183594 " fill-opacity="1" fill-rule="nonzero"/><path fill="#ffffff" d="M 494.027344 406.546875 L 808.554688 406.546875 L 808.554688 452.261719 L 494.027344 452.261719 Z M 494.027344 406.546875 " fill-opacity="1" fill-rule="nonzero"/><path fill="#000000" d="M 808.519531 453.082031 L 493.988281 453.082031 C 493.539062 453.082031 493.167969 452.710938 493.167969 452.261719 L 493.167969 406.546875 C 493.167969 406.101562 493.539062 405.726562 493.988281 405.726562 L 808.519531 405.726562 C 808.964844 405.726562 809.339844 406.101562 809.339844 406.546875 L 809.339844 452.261719 C 809.339844 452.710938 808.964844 453.082031 808.519531 453.082031 Z M 494.847656 451.441406 L 807.734375 451.441406 L 807.734375 407.367188 L 494.847656 407.367188 Z M 494.847656 451.441406 " fill-opacity="1" fill-rule="nonzero"/><path fill="#e2eaff" d="M 797.472656 442.035156 L 505.035156 442.035156 C 504.589844 442.035156 504.214844 441.664062 504.214844 441.214844 L 504.214844 417.59375 C 504.214844 417.144531 504.589844 416.773438 505.035156 416.773438 L 797.472656 416.773438 C 797.917969 416.773438 798.292969 417.144531 798.292969 417.59375 L 798.292969 441.214844 C 798.292969 441.699219 797.957031 442.035156 797.472656 442.035156 Z M 505.855469 440.394531 L 796.648438 440.394531 L 796.648438 418.414062 L 505.855469 418.414062 Z M 505.855469 440.394531 " fill-opacity="1" fill-rule="nonzero"/><path fill="#5479f7" d="M 713.429688 417.59375 L 713.429688 441.21875 L 505.046875 441.21875 L 505.046875 417.59375 Z M 713.429688 417.59375 " fill-opacity="1" fill-rule="nonzero"/><path fill="#5479f7" d="M 729.390625 285.488281 C 728.945312 285.488281 728.570312 285.117188 728.570312 284.667969 C 728.570312 239.960938 692.179688 203.613281 647.503906 203.613281 C 614.433594 203.613281 584.945312 223.390625 572.445312 253.992188 C 572.257812 254.402344 571.773438 254.628906 571.359375 254.441406 C 570.949219 254.253906 570.726562 253.804688 570.914062 253.359375 C 583.679688 222.125 613.761719 201.972656 647.503906 201.972656 C 693.113281 201.972656 730.210938 239.066406 730.210938 284.667969 C 730.210938 285.117188 729.839844 285.488281 729.390625 285.488281 Z M 729.390625 285.488281 " fill-opacity="1" fill-rule="nonzero"/><path fill="#5479f7" d="M 580.320312 254.066406 L 567.964844 264.851562 L 564.792969 248.804688 Z M 580.320312 254.066406 " fill-opacity="1" fill-rule="nonzero"/><path fill="#5479f7" d="M 647.464844 367.363281 C 601.855469 367.363281 564.753906 330.269531 564.753906 284.667969 C 564.753906 284.21875 565.128906 283.847656 565.574219 283.847656 C 566.023438 283.847656 566.398438 284.21875 566.398438 284.667969 C 566.398438 329.375 602.789062 365.722656 647.464844 365.722656 C 681.691406 365.722656 712.410156 344.078125 723.867188 311.835938 C 724.015625 311.425781 724.503906 311.199219 724.914062 311.351562 C 725.324219 311.5 725.546875 311.984375 725.398438 312.394531 C 713.753906 345.273438 682.402344 367.363281 647.464844 367.363281 Z M 647.464844 367.363281 " fill-opacity="1" fill-rule="nonzero"/><path fill="#5479f7" d="M 715.992188 312.097656 L 727.785156 300.714844 L 731.742188 316.648438 Z M 715.992188 312.097656 " fill-opacity="1" fill-rule="nonzero"/><path fill="#5479f7" d="M 1204.15625 583.507812 L 1047.542969 583.507812 C 1047.09375 583.507812 1046.722656 583.136719 1046.722656 582.6875 C 1046.722656 582.238281 1047.09375 581.867188 1047.542969 581.867188 L 1203.332031 581.867188 L 1203.332031 497.753906 C 1203.332031 497.304688 1203.707031 496.929688 1204.15625 496.929688 C 1204.601562 496.929688 1204.976562 497.304688 1204.976562 497.753906 L 1204.976562 582.6875 C 1204.976562 583.136719 1204.601562 583.507812 1204.15625 583.507812 Z M 1204.15625 583.507812 " fill-opacity="1" fill-rule="nonzero"/><path fill="#ffffff" d="M 1214.417969 407.183594 C 1214.417969 407.917969 1214.347656 408.644531 1214.203125 409.363281 C 1214.0625 410.082031 1213.847656 410.777344 1213.570312 411.457031 C 1213.289062 412.132812 1212.945312 412.773438 1212.539062 413.382812 C 1212.128906 413.992188 1211.667969 414.558594 1211.148438 415.074219 C 1210.632812 415.59375 1210.066406 416.054688 1209.457031 416.464844 C 1208.847656 416.871094 1208.207031 417.214844 1207.527344 417.492188 C 1206.851562 417.773438 1206.152344 417.984375 1205.433594 418.128906 C 1204.714844 418.273438 1203.992188 418.34375 1203.257812 418.34375 C 1202.527344 418.34375 1201.800781 418.273438 1201.082031 418.128906 C 1200.363281 417.984375 1199.664062 417.773438 1198.988281 417.492188 C 1198.308594 417.214844 1197.667969 416.871094 1197.058594 416.464844 C 1196.449219 416.054688 1195.886719 415.59375 1195.367188 415.074219 C 1194.847656 414.558594 1194.386719 413.992188 1193.980469 413.382812 C 1193.570312 412.773438 1193.226562 412.132812 1192.949219 411.457031 C 1192.667969 410.777344 1192.457031 410.082031 1192.3125 409.363281 C 1192.167969 408.644531 1192.097656 407.917969 1192.097656 407.183594 C 1192.097656 406.453125 1192.167969 405.726562 1192.3125 405.007812 C 1192.457031 404.289062 1192.667969 403.59375 1192.949219 402.914062 C 1193.226562 402.238281 1193.570312 401.59375 1193.980469 400.988281 C 1194.386719 400.378906 1194.847656 399.8125 1195.367188 399.296875 C 1195.886719 398.777344 1196.449219 398.316406 1197.058594 397.90625 C 1197.667969 397.5 1198.308594 397.15625 1198.988281 396.875 C 1199.664062 396.597656 1200.363281 396.386719 1201.082031 396.242188 C 1201.800781 396.097656 1202.527344 396.027344 1203.257812 396.027344 C 1203.992188 396.027344 1204.714844 396.097656 1205.433594 396.242188 C 1206.152344 396.386719 1206.851562 396.597656 1207.527344 396.875 C 1208.207031 397.15625 1208.847656 397.5 1209.457031 397.90625 C 1210.066406 398.316406 1210.632812 398.777344 1211.148438 399.296875 C 1211.667969 399.8125 1212.128906 400.378906 1212.539062 400.988281 C 1212.945312 401.59375 1213.289062 402.238281 1213.570312 402.914062 C 1213.847656 403.59375 1214.0625 404.289062 1214.203125 405.007812 C 1214.347656 405.726562 1214.417969 406.453125 1214.417969 407.183594 Z M 1214.417969 407.183594 " fill-opacity="1" fill-rule="nonzero"/><path fill="#000000" d="M 1204.15625 416.996094 C 1197.546875 416.996094 1192.171875 411.621094 1192.171875 405.019531 C 1192.171875 398.414062 1197.546875 393.039062 1204.15625 393.039062 C 1210.761719 393.039062 1216.136719 398.414062 1216.136719 405.019531 C 1216.136719 411.621094 1210.761719 416.996094 1204.15625 416.996094 Z M 1204.15625 394.679688 C 1198.445312 394.679688 1193.816406 399.308594 1193.816406 405.019531 C 1193.816406 410.726562 1198.445312 415.355469 1204.15625 415.355469 C 1209.867188 415.355469 1214.492188 410.726562 1214.492188 405.019531 C 1214.492188 399.308594 1209.828125 394.679688 1204.15625 394.679688 Z M 1204.15625 394.679688 " fill-opacity="1" fill-rule="nonzero"/><path fill="#ffffff" d="M 1214.351562 439.769531 C 1214.351562 440.5 1214.28125 441.226562 1214.136719 441.945312 C 1213.996094 442.664062 1213.785156 443.359375 1213.503906 444.039062 C 1213.222656 444.714844 1212.878906 445.359375 1212.472656 445.96875 C 1212.066406 446.578125 1211.601562 447.140625 1211.085938 447.65625 C 1210.566406 448.175781 1210.003906 448.636719 1209.394531 449.046875 C 1208.785156 449.453125 1208.140625 449.796875 1207.464844 450.078125 C 1206.785156 450.355469 1206.089844 450.570312 1205.371094 450.710938 C 1204.652344 450.855469 1203.925781 450.925781 1203.191406 450.925781 C 1202.460938 450.925781 1201.734375 450.855469 1201.015625 450.710938 C 1200.296875 450.570312 1199.597656 450.355469 1198.921875 450.078125 C 1198.246094 449.796875 1197.601562 449.453125 1196.992188 449.046875 C 1196.382812 448.636719 1195.820312 448.175781 1195.300781 447.65625 C 1194.785156 447.140625 1194.320312 446.578125 1193.914062 445.96875 C 1193.507812 445.359375 1193.164062 444.714844 1192.882812 444.039062 C 1192.601562 443.359375 1192.390625 442.664062 1192.246094 441.945312 C 1192.105469 441.226562 1192.035156 440.5 1192.035156 439.769531 C 1192.035156 439.035156 1192.105469 438.308594 1192.246094 437.589844 C 1192.390625 436.871094 1192.601562 436.175781 1192.882812 435.496094 C 1193.164062 434.820312 1193.507812 434.179688 1193.914062 433.570312 C 1194.320312 432.960938 1194.785156 432.394531 1195.300781 431.878906 C 1195.820312 431.359375 1196.382812 430.898438 1196.992188 430.492188 C 1197.601562 430.082031 1198.246094 429.738281 1198.921875 429.460938 C 1199.597656 429.179688 1200.296875 428.96875 1201.015625 428.824219 C 1201.734375 428.679688 1202.460938 428.609375 1203.191406 428.609375 C 1203.925781 428.609375 1204.652344 428.679688 1205.371094 428.824219 C 1206.089844 428.96875 1206.785156 429.179688 1207.464844 429.460938 C 1208.140625 429.738281 1208.785156 430.082031 1209.394531 430.492188 C 1210.003906 430.898438 1210.566406 431.359375 1211.085938 431.878906 C 1211.601562 432.394531 1212.066406 432.960938 1212.472656 433.570312 C 1212.878906 434.179688 1213.222656 434.820312 1213.503906 435.496094 C 1213.785156 436.175781 1213.996094 436.871094 1214.136719 437.589844 C 1214.28125 438.308594 1214.351562 439.035156 1214.351562 439.769531 Z M 1214.351562 439.769531 " fill-opacity="1" fill-rule="nonzero"/><path fill="#000000" d="M 1204.15625 449.574219 C 1197.546875 449.574219 1192.171875 444.203125 1192.171875 437.597656 C 1192.171875 430.992188 1197.546875 425.617188 1204.15625 425.617188 C 1210.761719 425.617188 1216.136719 430.992188 1216.136719 437.597656 C 1216.136719 444.203125 1210.761719 449.574219 1204.15625 449.574219 Z M 1204.15625 427.257812 C 1198.445312 427.257812 1193.816406 431.886719 1193.816406 437.597656 C 1193.816406 443.304688 1198.445312 447.933594 1204.15625 447.933594 C 1209.867188 447.933594 1214.492188 443.304688 1214.492188 437.597656 C 1214.492188 431.886719 1209.828125 427.257812 1204.15625 427.257812 Z M 1204.15625 427.257812 " fill-opacity="1" fill-rule="nonzero"/><path fill="#ffffff" d="M 1214.292969 472.304688 C 1214.292969 473.039062 1214.21875 473.761719 1214.078125 474.480469 C 1213.933594 475.199219 1213.722656 475.898438 1213.441406 476.574219 C 1213.160156 477.253906 1212.816406 477.894531 1212.410156 478.503906 C 1212.003906 479.113281 1211.542969 479.675781 1211.023438 480.195312 C 1210.503906 480.714844 1209.941406 481.175781 1209.332031 481.582031 C 1208.722656 481.988281 1208.078125 482.332031 1207.402344 482.613281 C 1206.726562 482.894531 1206.027344 483.105469 1205.308594 483.25 C 1204.589844 483.390625 1203.863281 483.464844 1203.132812 483.464844 C 1202.398438 483.464844 1201.671875 483.390625 1200.953125 483.25 C 1200.234375 483.105469 1199.539062 482.894531 1198.859375 482.613281 C 1198.183594 482.332031 1197.542969 481.988281 1196.933594 481.582031 C 1196.324219 481.175781 1195.757812 480.714844 1195.242188 480.195312 C 1194.722656 479.675781 1194.261719 479.113281 1193.851562 478.503906 C 1193.445312 477.894531 1193.101562 477.253906 1192.820312 476.574219 C 1192.542969 475.898438 1192.328125 475.199219 1192.1875 474.480469 C 1192.042969 473.761719 1191.972656 473.039062 1191.972656 472.304688 C 1191.972656 471.574219 1192.042969 470.847656 1192.1875 470.128906 C 1192.328125 469.410156 1192.542969 468.710938 1192.820312 468.035156 C 1193.101562 467.359375 1193.445312 466.714844 1193.851562 466.105469 C 1194.261719 465.496094 1194.722656 464.933594 1195.242188 464.414062 C 1195.757812 463.898438 1196.324219 463.433594 1196.933594 463.027344 C 1197.542969 462.621094 1198.183594 462.277344 1198.859375 461.996094 C 1199.539062 461.714844 1200.234375 461.503906 1200.953125 461.363281 C 1201.671875 461.21875 1202.398438 461.148438 1203.132812 461.148438 C 1203.863281 461.148438 1204.589844 461.21875 1205.308594 461.363281 C 1206.027344 461.503906 1206.726562 461.714844 1207.402344 461.996094 C 1208.078125 462.277344 1208.722656 462.621094 1209.332031 463.027344 C 1209.941406 463.433594 1210.503906 463.898438 1211.023438 464.414062 C 1211.542969 464.933594 1212.003906 465.496094 1212.410156 466.105469 C 1212.816406 466.714844 1213.160156 467.359375 1213.441406 468.035156 C 1213.722656 468.710938 1213.933594 469.410156 1214.078125 470.128906 C 1214.21875 470.847656 1214.292969 471.574219 1214.292969 472.304688 Z M 1214.292969 472.304688 " fill-opacity="1" fill-rule="nonzero"/><path fill="#000000" d="M 1204.15625 482.117188 C 1197.546875 482.117188 1192.171875 476.742188 1192.171875 470.136719 C 1192.171875 463.53125 1197.546875 458.160156 1204.15625 458.160156 C 1210.761719 458.160156 1216.136719 463.53125 1216.136719 470.136719 C 1216.136719 476.742188 1210.761719 482.117188 1204.15625 482.117188 Z M 1204.15625 459.800781 C 1198.445312 459.800781 1193.816406 464.425781 1193.816406 470.136719 C 1193.816406 475.847656 1198.445312 480.472656 1204.15625 480.472656 C 1209.867188 480.472656 1214.492188 475.847656 1214.492188 470.136719 C 1214.492188 464.425781 1209.828125 459.800781 1204.15625 459.800781 Z M 1204.15625 459.800781 " fill-opacity="1" fill-rule="nonzero"/><path fill="#5479f7" d="M 1204.15625 380.351562 C 1203.707031 380.351562 1203.332031 379.976562 1203.332031 379.53125 L 1203.332031 244.140625 C 1203.332031 243.691406 1203.707031 243.320312 1204.15625 243.320312 C 1204.601562 243.320312 1204.976562 243.691406 1204.976562 244.140625 L 1204.976562 379.53125 C 1204.976562 379.976562 1204.601562 380.351562 1204.15625 380.351562 Z M 1204.15625 380.351562 " fill-opacity="1" fill-rule="nonzero"/><g clip-path="url(#843ce7ae11)"><path fill="#000000" d="M 1092.144531 747.558594 L 925.492188 747.558594 C 925.042969 747.558594 924.671875 747.183594 924.671875 746.738281 C 924.671875 746.289062 925.042969 745.914062 925.492188 745.914062 L 1091.324219 745.914062 L 1091.324219 729.382812 C 1091.324219 728.9375 1091.695312 728.5625 1092.144531 728.5625 L 1230.765625 728.5625 C 1231.214844 728.5625 1231.589844 728.9375 1231.589844 729.382812 C 1231.589844 729.832031 1231.214844 730.203125 1230.765625 730.203125 L 1092.964844 730.203125 L 1092.964844 746.738281 C 1092.964844 747.183594 1092.59375 747.558594 1092.144531 747.558594 Z M 1092.144531 747.558594 " fill-opacity="1" fill-rule="nonzero"/></g><path fill="#ffffff" d="M 1137.71875 696.359375 C 1137.71875 696.359375 1125.175781 662.359375 1126.035156 641.089844 C 1126.894531 619.820312 1153.730469 608.324219 1173.289062 619.371094 C 1192.882812 630.453125 1187.769531 653.851562 1187.769531 653.851562 C 1187.769531 653.851562 1199.265625 645.753906 1207.773438 654.261719 C 1216.285156 662.773438 1208.632812 676.394531 1195.867188 676.839844 L 1190.53125 696.171875 Z M 1137.71875 696.359375 " fill-opacity="1" fill-rule="nonzero"/><path fill="#000000" d="M 1137.71875 697.179688 C 1137.382812 697.179688 1137.082031 696.953125 1136.933594 696.65625 C 1136.820312 696.320312 1124.355469 662.285156 1125.214844 641.050781 C 1125.585938 631.722656 1130.886719 623.550781 1139.695312 618.660156 C 1150.257812 612.765625 1163.285156 612.804688 1173.699219 618.660156 C 1190.417969 628.101562 1189.5625 646.5 1188.851562 652.246094 C 1192.398438 650.34375 1201.355469 646.6875 1208.371094 653.703125 C 1212.105469 657.433594 1213.1875 662.546875 1211.285156 667.398438 C 1208.96875 673.21875 1203.222656 677.175781 1196.503906 677.625 L 1191.316406 696.394531 C 1191.203125 696.769531 1190.90625 696.992188 1190.53125 696.992188 Z M 1156.753906 615.863281 C 1151.15625 615.863281 1145.554688 617.28125 1140.515625 620.078125 C 1132.195312 624.707031 1127.230469 632.394531 1126.855469 641.128906 C 1126.074219 660.570312 1136.710938 691.097656 1138.316406 695.535156 L 1189.933594 695.351562 L 1195.121094 676.617188 C 1195.234375 676.28125 1195.53125 676.019531 1195.867188 676.019531 C 1202.101562 675.796875 1207.664062 672.101562 1209.753906 666.800781 C 1211.433594 662.511719 1210.539062 658.144531 1207.214844 654.859375 C 1199.300781 646.949219 1188.703125 654.226562 1188.253906 654.523438 C 1187.992188 654.710938 1187.621094 654.710938 1187.320312 654.523438 C 1187.023438 654.335938 1186.910156 654.003906 1186.984375 653.667969 C 1187.023438 653.441406 1191.726562 630.714844 1172.914062 620.082031 C 1167.914062 617.28125 1162.351562 615.863281 1156.753906 615.863281 Z M 1156.753906 615.863281 " fill-opacity="1" fill-rule="nonzero"/><path fill="#ffffff" d="M 1122.789062 696.28125 L 1132.304688 729.347656 L 1196.128906 729.347656 L 1205.648438 696.28125 Z M 1122.789062 696.28125 " fill-opacity="1" fill-rule="nonzero"/><path fill="#000000" d="M 1196.128906 730.167969 L 1132.304688 730.167969 C 1131.933594 730.167969 1131.632812 729.945312 1131.523438 729.570312 L 1122.003906 696.542969 C 1121.929688 696.28125 1121.96875 696.023438 1122.152344 695.835938 C 1122.304688 695.609375 1122.5625 695.5 1122.824219 695.5 L 1205.683594 695.5 C 1205.945312 695.5 1206.171875 695.609375 1206.355469 695.835938 C 1206.507812 696.058594 1206.542969 696.320312 1206.507812 696.542969 L 1196.988281 729.570312 C 1196.839844 729.90625 1196.503906 730.167969 1196.128906 730.167969 Z M 1132.902344 728.527344 L 1195.53125 728.527344 L 1204.566406 697.140625 L 1123.871094 697.140625 Z M 1132.902344 728.527344 " fill-opacity="1" fill-rule="nonzero"/><path fill="#000000" d="M 1145.855469 621.871094 C 1145.554688 621.871094 1145.257812 621.683594 1145.109375 621.386719 L 1140.515625 611.234375 C 1140.332031 610.824219 1140.515625 610.339844 1140.925781 610.152344 C 1141.339844 609.96875 1141.824219 610.152344 1142.011719 610.5625 L 1146.601562 620.714844 C 1146.789062 621.125 1146.601562 621.609375 1146.191406 621.796875 C 1146.078125 621.835938 1145.964844 621.871094 1145.855469 621.871094 Z M 1145.855469 621.871094 " fill-opacity="1" fill-rule="nonzero"/><path fill="#000000" d="M 1166.269531 645.417969 C 1166.085938 645.417969 1165.898438 645.34375 1165.75 645.230469 C 1165.414062 644.933594 1165.375 644.410156 1165.636719 644.074219 L 1172.617188 635.867188 C 1172.914062 635.53125 1173.4375 635.492188 1173.773438 635.753906 C 1174.109375 636.050781 1174.144531 636.574219 1173.886719 636.910156 L 1166.90625 645.121094 C 1166.753906 645.308594 1166.53125 645.417969 1166.269531 645.417969 Z M 1166.269531 645.417969 " fill-opacity="1" fill-rule="nonzero"/><path fill="#000000" d="M 1174.070312 620.566406 C 1173.886719 620.566406 1173.699219 620.492188 1173.550781 620.378906 C 1173.214844 620.078125 1173.175781 619.558594 1173.4375 619.222656 L 1177.355469 614.59375 C 1177.65625 614.257812 1178.175781 614.222656 1178.511719 614.480469 C 1178.847656 614.78125 1178.886719 615.304688 1178.625 615.640625 L 1174.707031 620.265625 C 1174.554688 620.453125 1174.332031 620.566406 1174.070312 620.566406 Z M 1174.070312 620.566406 " fill-opacity="1" fill-rule="nonzero"/><path fill="#000000" d="M 1205.648438 652.546875 C 1205.421875 652.546875 1205.238281 652.472656 1205.050781 652.324219 C 1204.714844 651.988281 1204.714844 651.464844 1205.050781 651.164062 L 1209.753906 646.5 C 1210.089844 646.164062 1210.613281 646.164062 1210.910156 646.5 C 1211.246094 646.835938 1211.246094 647.359375 1210.910156 647.65625 L 1206.207031 652.324219 C 1206.058594 652.472656 1205.871094 652.546875 1205.648438 652.546875 Z M 1205.648438 652.546875 " fill-opacity="1" fill-rule="nonzero"/><path fill="#000000" d="M 1134.992188 661.875 C 1134.882812 661.875 1134.804688 661.875 1134.695312 661.839844 L 1123.945312 657.84375 C 1123.535156 657.695312 1123.3125 657.210938 1123.460938 656.800781 C 1123.609375 656.390625 1124.09375 656.167969 1124.503906 656.316406 L 1135.253906 660.308594 C 1135.664062 660.457031 1135.890625 660.941406 1135.738281 661.355469 C 1135.628906 661.6875 1135.292969 661.875 1134.992188 661.875 Z M 1134.992188 661.875 " fill-opacity="1" fill-rule="nonzero"/><path fill="#000000" d="M 1160.933594 684.042969 C 1160.710938 684.042969 1160.449219 683.929688 1160.300781 683.746094 C 1160 683.410156 1160.074219 682.886719 1160.410156 682.585938 L 1169.367188 675.386719 C 1169.703125 675.085938 1170.226562 675.160156 1170.527344 675.496094 C 1170.824219 675.832031 1170.75 676.355469 1170.414062 676.652344 L 1161.457031 683.855469 C 1161.304688 683.96875 1161.121094 684.042969 1160.933594 684.042969 Z M 1160.933594 684.042969 " fill-opacity="1" fill-rule="nonzero"/><path fill="#000000" d="M 1132.789062 682.476562 C 1132.714844 682.476562 1132.605469 682.476562 1132.53125 682.4375 L 1127.003906 680.648438 C 1126.558594 680.496094 1126.332031 680.050781 1126.484375 679.601562 C 1126.632812 679.152344 1127.082031 678.929688 1127.527344 679.078125 L 1133.050781 680.871094 C 1133.5 681.019531 1133.722656 681.46875 1133.574219 681.914062 C 1133.460938 682.25 1133.164062 682.476562 1132.789062 682.476562 Z M 1132.789062 682.476562 " fill-opacity="1" fill-rule="nonzero"/><path fill="#000000" d="M 1209.492188 674.265625 C 1209.34375 674.265625 1209.230469 674.226562 1209.082031 674.152344 L 1202.25 670.308594 C 1201.839844 670.085938 1201.730469 669.601562 1201.953125 669.191406 C 1202.175781 668.78125 1202.660156 668.667969 1203.070312 668.890625 L 1209.902344 672.734375 C 1210.3125 672.960938 1210.425781 673.445312 1210.199219 673.855469 C 1210.050781 674.117188 1209.789062 674.265625 1209.492188 674.265625 Z M 1209.492188 674.265625 " fill-opacity="1" fill-rule="nonzero"/><path fill="#000000" d="M 1146.453125 647.472656 C 1146.226562 647.472656 1146.003906 647.359375 1145.816406 647.171875 L 1139.398438 639.558594 C 1139.097656 639.222656 1139.136719 638.703125 1139.507812 638.402344 C 1139.84375 638.105469 1140.367188 638.140625 1140.667969 638.515625 L 1147.085938 646.128906 C 1147.382812 646.464844 1147.347656 646.984375 1146.972656 647.285156 C 1146.824219 647.398438 1146.636719 647.472656 1146.453125 647.472656 Z M 1146.453125 647.472656 " fill-opacity="1" fill-rule="nonzero"/><path fill="#000000" d="M 453.601562 631.164062 L 426.84375 631.050781 C 426.394531 631.050781 426.019531 630.679688 426.019531 630.230469 C 426.019531 629.78125 426.394531 629.410156 426.84375 629.410156 L 453.601562 629.523438 C 454.050781 629.523438 454.425781 629.894531 454.425781 630.34375 C 454.425781 630.789062 454.050781 631.164062 453.601562 631.164062 Z M 453.601562 631.164062 " fill-opacity="1" fill-rule="nonzero"/><path fill="#5479f7" d="M 640.785156 736.808594 C 612.15625 701.65625 530.714844 601.90625 530.714844 601.90625 L 543.628906 575.859375 C 564.902344 539.957031 535.230469 495.402344 493.914062 501.109375 L 395.898438 514.695312 L 352.230469 521.335938 L 246.378906 524.359375 C 229.136719 592.988281 270.527344 614.894531 292.886719 621.574219 C 318.003906 631.648438 379.703125 631.386719 408.03125 630.679688 C 404.484375 637.171875 404.449219 645.15625 408.21875 651.726562 C 420.308594 672.960938 445.953125 706.957031 459.128906 724.011719 C 462.375 728.226562 469.09375 726.773438 470.289062 721.585938 L 483.984375 684.566406 L 515.335938 717.964844 C 523.773438 729.308594 537.84375 737.78125 551.316406 739.535156 L 635.335938 746.585938 C 640.746094 747.371094 644.253906 741.0625 640.785156 736.808594 Z M 640.785156 736.808594 " fill-opacity="1" fill-rule="nonzero"/><path fill="#000000" d="M 483.277344 686.09375 C 483.050781 686.09375 482.867188 686.019531 482.679688 685.835938 L 429.828125 632.320312 L 404.484375 632.28125 C 404.035156 632.28125 403.664062 631.910156 403.664062 631.460938 C 403.664062 631.015625 404.035156 630.640625 404.484375 630.640625 L 430.164062 630.679688 C 430.386719 630.679688 430.613281 630.753906 430.761719 630.941406 L 483.835938 684.714844 C 484.171875 685.050781 484.132812 685.574219 483.835938 685.871094 C 483.722656 686.019531 483.5 686.09375 483.277344 686.09375 Z M 483.277344 686.09375 " fill-opacity="1" fill-rule="nonzero"/><path fill="#000000" d="M 544.859375 716.917969 C 536.984375 716.917969 528.847656 716.433594 520.824219 715.242188 C 520.375 715.164062 520.078125 714.753906 520.113281 714.308594 C 520.191406 713.859375 520.601562 713.5625 521.046875 713.597656 C 563.710938 719.980469 608.609375 706.058594 609.058594 705.910156 C 609.507812 705.761719 609.953125 706.023438 610.105469 706.433594 C 610.253906 706.882812 609.992188 707.328125 609.582031 707.476562 C 609.207031 707.589844 579.199219 716.917969 544.859375 716.917969 Z M 544.859375 716.917969 " fill-opacity="1" fill-rule="nonzero"/><path fill="#000000" d="M 529.074219 599.628906 C 528.847656 599.628906 528.585938 599.519531 528.4375 599.332031 L 499.699219 563.433594 C 485.253906 545.40625 462.898438 535.667969 439.867188 537.457031 L 315.128906 546.972656 C 314.683594 547.011719 314.273438 546.675781 314.234375 546.226562 C 314.199219 545.78125 314.535156 545.371094 314.980469 545.332031 L 439.71875 535.816406 C 463.308594 534.023438 486.1875 543.953125 500.929688 562.425781 L 529.671875 598.324219 C 529.96875 598.660156 529.894531 599.183594 529.558594 599.480469 C 529.445312 599.59375 529.257812 599.628906 529.074219 599.628906 Z M 529.074219 599.628906 " fill-opacity="1" fill-rule="nonzero"/><path fill="#ffffff" d="M 256.496094 547.273438 L 287.699219 409.085938 C 287.699219 409.085938 345.363281 407.929688 365.59375 412.480469 C 365.59375 412.480469 376.007812 497.789062 377.050781 517.980469 Z M 256.496094 547.273438 " fill-opacity="1" fill-rule="nonzero"/><path fill="#ffffff" d="M 403.027344 513.3125 C 403.027344 513.3125 385.824219 415.207031 365.628906 412.480469 L 368.914062 513.3125 Z M 403.027344 513.3125 " fill-opacity="1" fill-rule="nonzero"/><path fill="#000000" d="M 403.027344 514.136719 L 368.953125 514.136719 C 368.503906 514.136719 368.132812 513.800781 368.132812 513.351562 L 366.601562 467.523438 C 366.601562 467.078125 366.9375 466.703125 367.382812 466.667969 C 367.832031 466.628906 368.207031 467.003906 368.242188 467.449219 L 369.734375 512.492188 L 402.019531 512.492188 C 400.15625 502.34375 383.917969 415.839844 365.519531 413.300781 C 365.070312 413.226562 364.773438 412.816406 364.808594 412.371094 C 364.882812 411.921875 365.292969 411.585938 365.742188 411.660156 C 386.34375 414.535156 403.105469 509.132812 403.8125 513.164062 C 403.851562 513.386719 403.777344 513.648438 403.625 513.835938 C 403.476562 514.023438 403.253906 514.136719 403.027344 514.136719 Z M 403.027344 514.136719 " fill-opacity="1" fill-rule="nonzero"/><path fill="#000000" d="M 486.636719 516.859375 L 330.359375 516.859375 L 330.359375 512.15625 C 330.359375 508.015625 333.71875 504.65625 337.859375 504.65625 L 497.644531 504.65625 L 496.375 509.433594 C 495.183594 513.800781 491.1875 516.859375 486.636719 516.859375 Z M 486.636719 516.859375 " fill-opacity="1" fill-rule="nonzero"/><path fill="#000000" d="M 491.113281 511.335938 L 396.796875 511.335938 C 392.765625 511.335938 389.816406 507.566406 390.785156 503.648438 L 408.589844 431.773438 C 409.261719 429.011719 411.761719 427.074219 414.601562 427.074219 L 508.878906 427.074219 C 512.910156 427.074219 515.859375 430.839844 514.890625 434.761719 L 497.085938 506.632812 C 496.414062 509.394531 493.949219 511.335938 491.113281 511.335938 Z M 491.113281 511.335938 " fill-opacity="1" fill-rule="nonzero"/><path fill="#5479f7" d="M 462.160156 454.476562 C 462.203125 454.886719 462.164062 455.285156 462.042969 455.679688 C 461.925781 456.070312 461.734375 456.425781 461.476562 456.746094 C 461.214844 457.0625 460.902344 457.320312 460.539062 457.511719 C 460.179688 457.707031 459.792969 457.824219 459.382812 457.863281 C 458.976562 457.902344 458.574219 457.863281 458.179688 457.746094 C 457.789062 457.625 457.433594 457.4375 457.117188 457.175781 C 456.796875 456.917969 456.542969 456.605469 456.347656 456.242188 C 456.152344 455.878906 456.035156 455.496094 455.996094 455.085938 C 455.957031 454.679688 455.996094 454.277344 456.113281 453.882812 C 456.234375 453.492188 456.421875 453.136719 456.683594 452.816406 C 456.945312 452.5 457.253906 452.246094 457.617188 452.050781 C 457.980469 451.855469 458.363281 451.738281 458.773438 451.699219 C 459.183594 451.660156 459.582031 451.699219 459.976562 451.816406 C 460.371094 451.9375 460.726562 452.125 461.042969 452.386719 C 461.359375 452.648438 461.617188 452.957031 461.808594 453.320312 C 462.003906 453.683594 462.121094 454.066406 462.160156 454.476562 Z M 462.160156 454.476562 " fill-opacity="1" fill-rule="nonzero"/><path fill="#000000" d="M 365.628906 413.300781 C 365.59375 413.300781 365.554688 413.300781 365.554688 413.300781 L 337.375 410.429688 C 336.929688 410.390625 336.59375 409.980469 336.628906 409.53125 C 336.667969 409.085938 337.078125 408.75 337.523438 408.785156 L 365.703125 411.660156 C 366.152344 411.699219 366.488281 412.109375 366.453125 412.554688 C 366.414062 412.964844 366.039062 413.300781 365.628906 413.300781 Z M 365.628906 413.300781 " fill-opacity="1" fill-rule="nonzero"/><path fill="#000000" d="M 323.230469 443.34375 C 323.191406 443.34375 323.117188 443.34375 323.082031 443.34375 C 321.847656 443.15625 318.75 438.828125 307.328125 421.324219 C 304.082031 416.324219 300.6875 411.175781 300.015625 410.464844 C 299.789062 410.316406 299.640625 410.054688 299.640625 409.757812 C 299.640625 409.308594 300.015625 408.9375 300.460938 408.9375 C 301.132812 408.9375 301.207031 408.9375 308.710938 420.429688 C 313.339844 427.519531 320.878906 439.050781 323.082031 441.402344 C 324.164062 439.238281 327.039062 430.878906 329.464844 423.152344 C 329.574219 422.855469 329.835938 422.632812 330.136719 422.59375 C 330.433594 422.558594 330.769531 422.707031 330.917969 422.96875 C 335.097656 429.273438 339.875 436.140625 341.78125 438.527344 C 342.488281 434.386719 343.496094 419.945312 344.058594 410.726562 C 344.09375 410.28125 344.46875 409.90625 344.914062 409.945312 C 345.363281 409.980469 345.699219 410.355469 345.699219 410.800781 C 343.980469 439.722656 343.050781 440.433594 342.675781 440.695312 C 342.488281 440.84375 342.191406 440.917969 341.929688 440.84375 C 341.59375 440.769531 340.699219 440.542969 330.472656 425.28125 C 328.53125 431.363281 324.945312 442.222656 323.753906 443.15625 C 323.679688 443.269531 323.453125 443.34375 323.230469 443.34375 Z M 300.460938 410.539062 Z M 300.460938 410.539062 " fill-opacity="1" fill-rule="nonzero"/><path fill="#ffffff" d="M 362.160156 504.65625 C 362.160156 504.65625 344.953125 475.175781 321.4375 483.90625 C 297.925781 492.640625 264.445312 513.574219 264.445312 513.574219 C 264.445312 513.574219 295.386719 429.574219 287.734375 409.085938 C 287.734375 409.085938 247.238281 421.25 228.464844 481.816406 C 209.691406 542.382812 237.683594 562.945312 257.503906 563.320312 C 277.320312 563.691406 327.039062 511.335938 334.875 511.375 Z M 362.160156 504.65625 " fill-opacity="1" fill-rule="nonzero"/><path fill="#000000" d="M 242.945312 560.257812 C 242.832031 560.257812 242.683594 560.222656 242.574219 560.148438 C 232.457031 554.773438 210.734375 536.414062 227.71875 481.519531 C 237.460938 450.058594 253.171875 431.8125 264.632812 422.070312 C 277.097656 411.472656 287.101562 408.375 287.511719 408.265625 C 287.585938 408.226562 287.660156 408.226562 287.773438 408.226562 L 310.316406 408.414062 C 310.765625 408.414062 311.136719 408.785156 311.136719 409.234375 C 311.136719 409.683594 310.765625 410.054688 310.316406 410.054688 L 287.882812 409.867188 C 286.726562 410.242188 277.136719 413.5625 265.601562 423.378906 C 254.328125 432.96875 238.878906 450.957031 229.285156 482.003906 C 212.675781 535.703125 233.578125 553.503906 243.355469 558.691406 C 243.765625 558.917969 243.917969 559.402344 243.691406 559.8125 C 243.503906 560.109375 243.246094 560.257812 242.945312 560.257812 Z M 242.945312 560.257812 " fill-opacity="1" fill-rule="nonzero"/><path fill="#000000" d="M 302.886719 536.449219 C 302.664062 536.449219 302.402344 536.339844 302.253906 536.152344 C 301.957031 535.816406 302.03125 535.292969 302.367188 534.996094 C 305.277344 532.570312 308.152344 530.179688 310.875 527.867188 C 323.9375 516.894531 331.554688 510.628906 334.761719 510.515625 L 360.816406 504.132812 C 357.644531 499.246094 341.929688 477.191406 321.699219 484.691406 C 298.558594 493.273438 265.191406 514.058594 264.855469 514.285156 C 264.554688 514.472656 264.183594 514.433594 263.882812 514.210938 C 263.625 513.984375 263.511719 513.613281 263.625 513.277344 C 263.699219 513.089844 270.15625 495.476562 276.386719 474.691406 C 276.5 474.242188 276.984375 474.019531 277.394531 474.128906 C 277.84375 474.242188 278.066406 474.726562 277.957031 475.136719 C 273.027344 491.667969 267.914062 506.222656 265.976562 511.597656 C 273.589844 506.96875 301.097656 490.511719 321.101562 483.085938 C 344.953125 474.242188 362.644531 503.910156 362.792969 504.207031 C 362.941406 504.433594 362.941406 504.695312 362.832031 504.953125 C 362.71875 505.179688 362.53125 505.363281 362.269531 505.441406 L 335.023438 512.121094 C 334.949219 512.121094 334.875 512.121094 334.839844 512.15625 C 332.113281 512.15625 322.296875 520.402344 311.882812 529.136719 C 309.160156 531.449219 306.285156 533.839844 303.335938 536.265625 C 303.261719 536.375 303.074219 536.449219 302.886719 536.449219 Z M 302.886719 536.449219 " fill-opacity="1" fill-rule="nonzero"/><path fill="#000000" d="M 341.035156 507.902344 C 340.699219 507.902344 340.363281 507.679688 340.25 507.34375 C 338.757812 503.050781 335.359375 499.355469 331.179688 497.527344 C 330.769531 497.34375 330.582031 496.855469 330.769531 496.445312 C 330.957031 496.035156 331.441406 495.847656 331.851562 496.035156 C 336.441406 498.050781 340.136719 502.082031 341.78125 506.820312 C 341.929688 507.230469 341.707031 507.714844 341.257812 507.867188 C 341.21875 507.902344 341.109375 507.902344 341.035156 507.902344 Z M 341.035156 507.902344 " fill-opacity="1" fill-rule="nonzero"/><path fill="#000000" d="M 349.582031 506.1875 C 349.246094 506.1875 348.910156 505.960938 348.796875 505.589844 C 347.230469 500.328125 343.308594 495.773438 338.347656 493.421875 C 337.9375 493.238281 337.75 492.75 337.9375 492.339844 C 338.121094 491.929688 338.609375 491.746094 339.019531 491.929688 C 344.429688 494.46875 348.648438 499.394531 350.363281 505.105469 C 350.476562 505.550781 350.253906 506 349.804688 506.113281 C 349.769531 506.1875 349.65625 506.1875 349.582031 506.1875 Z M 349.582031 506.1875 " fill-opacity="1" fill-rule="nonzero"/><path fill="#000000" d="M 330.359375 516.859375 L 330.359375 512.15625 C 330.359375 508.015625 333.71875 504.65625 337.859375 504.65625 L 368.914062 504.65625 Z M 330.359375 516.859375 " fill-opacity="1" fill-rule="nonzero"/><path fill="#000000" d="M 252.164062 522.71875 C 251.902344 522.71875 251.640625 522.605469 251.492188 522.34375 C 251.230469 521.972656 251.34375 521.449219 251.71875 521.1875 L 263.996094 512.867188 C 264.371094 512.605469 264.890625 512.714844 265.152344 513.089844 C 265.414062 513.464844 265.304688 513.984375 264.929688 514.246094 L 252.648438 522.570312 C 252.5 522.679688 252.351562 522.71875 252.164062 522.71875 Z M 252.164062 522.71875 " fill-opacity="1" fill-rule="nonzero"/><path fill="#000000" d="M 321.4375 520.402344 C 321.101562 520.402344 320.804688 520.21875 320.691406 519.882812 L 308.597656 489.839844 C 308.414062 489.429688 308.636719 488.945312 309.046875 488.757812 C 309.457031 488.570312 309.941406 488.796875 310.128906 489.207031 L 322.222656 519.246094 C 322.410156 519.65625 322.183594 520.144531 321.773438 520.328125 C 321.664062 520.367188 321.550781 520.402344 321.4375 520.402344 Z M 321.4375 520.402344 " fill-opacity="1" fill-rule="nonzero"/><path fill="#000000" d="M 323.902344 389.828125 C 323.902344 389.828125 317.742188 392.589844 315.691406 387.664062 C 311.996094 378.820312 303.148438 376.433594 299.714844 366.503906 C 296.246094 356.578125 300.164062 333.253906 310.503906 336.277344 C 310.503906 336.277344 317.855469 323.328125 327.785156 320.304688 C 337.710938 317.285156 341.183594 325.492188 341.183594 325.492188 C 341.183594 325.492188 353.722656 318.140625 363.652344 321.613281 C 373.582031 325.082031 367.945312 341.019531 367.945312 341.019531 C 367.945312 341.019531 377.460938 341.765625 377.5 353.59375 C 377.5 366.320312 361.859375 373.148438 351.894531 376.617188 C 341.96875 380.015625 323.902344 389.828125 323.902344 389.828125 Z M 323.902344 389.828125 " fill-opacity="1" fill-rule="nonzero"/><path fill="#ffffff" d="M 323.828125 374.941406 L 310.277344 409.273438 L 330.246094 423.378906 L 337.449219 409.609375 L 345.660156 386.058594 Z M 323.828125 374.941406 " fill-opacity="1" fill-rule="nonzero"/><path fill="#000000" d="M 330.246094 424.199219 C 330.058594 424.199219 329.910156 424.160156 329.761719 424.050781 L 309.757812 409.945312 C 309.457031 409.71875 309.308594 409.308594 309.457031 408.972656 L 323.007812 374.640625 C 323.082031 374.417969 323.265625 374.269531 323.492188 374.15625 C 323.714844 374.082031 323.9375 374.082031 324.164062 374.191406 L 345.996094 385.3125 C 346.371094 385.5 346.519531 385.910156 346.410156 386.320312 L 338.195312 409.867188 C 338.195312 409.90625 338.160156 409.945312 338.160156 409.980469 L 330.992188 423.75 C 330.882812 423.976562 330.695312 424.125 330.472656 424.160156 C 330.394531 424.199219 330.320312 424.199219 330.246094 424.199219 Z M 311.285156 408.972656 L 329.984375 422.183594 L 336.703125 409.273438 L 344.691406 386.472656 L 324.273438 376.097656 Z M 311.285156 408.972656 " fill-opacity="1" fill-rule="nonzero"/><path fill="#ffffff" d="M 362.605469 372.179688 C 362.121094 377.402344 360.667969 382.628906 357.605469 386.917969 C 354.582031 391.210938 349.84375 394.417969 344.617188 394.90625 C 340.101562 395.316406 335.511719 393.597656 331.964844 390.761719 C 328.417969 387.925781 325.804688 384.046875 323.9375 379.902344 C 319.199219 380.203125 314.457031 376.917969 313.078125 372.402344 C 312.257812 369.789062 312.59375 366.691406 314.457031 364.640625 C 316.289062 362.625 319.796875 362.066406 321.847656 363.855469 C 323.042969 364.902344 323.601562 366.46875 324.835938 367.4375 C 326.179688 368.519531 328.15625 368.671875 329.800781 368.109375 C 331.441406 367.589844 332.859375 366.429688 334.054688 365.199219 C 337.898438 361.28125 340.210938 355.90625 340.472656 350.421875 C 340.4375 350.945312 342.824219 352.398438 343.234375 352.699219 C 344.28125 353.40625 345.402344 354.042969 346.558594 354.5625 C 348.835938 355.609375 351.296875 356.28125 353.761719 356.542969 C 355.03125 356.691406 356.300781 356.691406 357.570312 356.617188 C 358.574219 356.542969 359.996094 356.019531 361.003906 356.28125 C 363.054688 356.839844 362.605469 360.722656 362.683594 362.289062 C 362.867188 365.609375 362.90625 368.894531 362.605469 372.179688 Z M 362.605469 372.179688 " fill-opacity="1" fill-rule="nonzero"/><path fill="#000000" d="M 343.347656 395.761719 C 339.28125 395.761719 335.023438 394.195312 331.480469 391.398438 C 328.230469 388.820312 325.542969 385.238281 323.453125 380.722656 C 318.488281 380.761719 313.789062 377.367188 312.292969 372.625 C 311.324219 369.492188 311.921875 366.207031 313.824219 364.082031 C 316.0625 361.617188 320.058594 361.207031 322.371094 363.257812 C 323.007812 363.820312 323.492188 364.492188 323.9375 365.164062 C 324.386719 365.796875 324.796875 366.394531 325.359375 366.839844 C 326.402344 367.699219 328.007812 367.886719 329.539062 367.402344 C 330.84375 366.992188 332.074219 366.132812 333.496094 364.675781 C 337.1875 360.90625 339.429688 355.722656 339.691406 350.460938 C 339.726562 350.011719 340.101562 349.675781 340.546875 349.675781 C 340.921875 349.675781 341.21875 349.972656 341.296875 350.308594 C 341.445312 350.496094 341.96875 350.945312 343.421875 351.914062 C 343.535156 351.988281 343.644531 352.0625 343.722656 352.101562 C 344.730469 352.773438 345.773438 353.40625 346.894531 353.890625 C 349.097656 354.898438 351.445312 355.535156 353.835938 355.796875 C 355.066406 355.90625 356.300781 355.945312 357.492188 355.871094 C 357.792969 355.832031 358.164062 355.796875 358.574219 355.683594 C 359.433594 355.535156 360.367188 355.347656 361.1875 355.570312 C 363.503906 356.207031 363.464844 359.304688 363.464844 361.394531 C 363.464844 361.765625 363.464844 362.101562 363.464844 362.363281 C 363.691406 366.28125 363.652344 369.453125 363.355469 372.328125 C 362.792969 378.371094 361.039062 383.449219 358.238281 387.441406 C 354.882812 392.179688 349.804688 395.316406 344.652344 395.761719 C 344.242188 395.726562 343.796875 395.761719 343.347656 395.761719 Z M 323.976562 379.042969 C 324.3125 379.042969 324.609375 379.230469 324.722656 379.53125 C 326.738281 384.007812 329.351562 387.589844 332.488281 390.089844 C 336.105469 392.964844 340.511719 394.417969 344.542969 394.046875 C 349.207031 393.636719 353.835938 390.761719 356.933594 386.394531 C 359.582031 382.628906 361.226562 377.8125 361.785156 372.066406 C 362.046875 369.265625 362.085938 366.207031 361.859375 362.363281 C 361.859375 362.066406 361.859375 361.730469 361.859375 361.320312 C 361.859375 359.863281 361.859375 357.398438 360.816406 357.101562 C 360.367188 356.988281 359.621094 357.140625 358.949219 357.25 C 358.5 357.324219 358.089844 357.4375 357.679688 357.4375 C 356.375 357.511719 355.066406 357.476562 353.722656 357.363281 C 351.109375 357.101562 348.609375 356.394531 346.257812 355.308594 C 345.066406 354.75 343.90625 354.117188 342.824219 353.371094 L 342.5625 353.183594 C 342.003906 352.808594 341.554688 352.511719 341.183594 352.25 C 340.546875 357.289062 338.234375 362.140625 334.6875 365.757812 C 333.121094 367.402344 331.628906 368.371094 330.097656 368.894531 C 328.046875 369.566406 325.84375 369.230469 324.351562 368.074219 C 323.640625 367.476562 323.117188 366.765625 322.632812 366.058594 C 322.222656 365.460938 321.8125 364.902344 321.328125 364.453125 C 319.683594 363.035156 316.734375 363.371094 315.09375 365.164062 C 313.601562 366.839844 313.117188 369.566406 313.898438 372.101562 C 315.167969 376.28125 319.574219 379.304688 323.9375 379.042969 C 323.9375 379.042969 323.9375 379.042969 323.976562 379.042969 Z M 341.332031 350.496094 Z M 341.332031 350.496094 " fill-opacity="1" fill-rule="nonzero"/><path fill="#000000" d="M 323.828125 375.761719 C 323.417969 375.761719 323.082031 375.460938 323.007812 375.089844 C 322.671875 372.925781 320.917969 371.097656 318.789062 370.609375 C 318.339844 370.5 318.078125 370.050781 318.152344 369.640625 C 318.265625 369.191406 318.714844 368.929688 319.125 369.007812 C 321.886719 369.640625 324.125 372.027344 324.574219 374.828125 C 324.648438 375.273438 324.351562 375.6875 323.902344 375.761719 C 323.902344 375.761719 323.863281 375.761719 323.828125 375.761719 Z M 323.828125 375.761719 " fill-opacity="1" fill-rule="nonzero"/><path fill="#ffffff" d="M 1065.683594 306.386719 L 891.863281 306.386719 C 887.308594 306.386719 883.652344 302.691406 883.652344 298.175781 L 883.652344 157.710938 C 883.652344 153.160156 887.347656 149.503906 891.863281 149.503906 L 1065.683594 149.503906 C 1070.234375 149.503906 1073.894531 153.199219 1073.894531 157.710938 L 1073.894531 298.214844 C 1073.894531 302.730469 1070.199219 306.386719 1065.683594 306.386719 Z M 1065.683594 306.386719 " fill-opacity="1" fill-rule="nonzero"/><path fill="#000000" d="M 1065.683594 307.207031 L 891.863281 307.207031 C 886.863281 307.207031 882.832031 303.140625 882.832031 298.175781 L 882.832031 157.710938 C 882.832031 152.710938 886.898438 148.683594 891.863281 148.683594 L 1065.683594 148.683594 C 1070.683594 148.683594 1074.714844 152.75 1074.714844 157.710938 L 1074.714844 298.214844 C 1074.714844 303.175781 1070.644531 307.207031 1065.683594 307.207031 Z M 891.863281 150.285156 C 887.796875 150.285156 884.472656 153.609375 884.472656 157.675781 L 884.472656 298.175781 C 884.472656 302.246094 887.796875 305.566406 891.863281 305.566406 L 1065.683594 305.566406 C 1069.75 305.566406 1073.070312 302.246094 1073.070312 298.175781 L 1073.070312 157.710938 C 1073.070312 153.644531 1069.75 150.324219 1065.683594 150.324219 L 891.863281 150.324219 Z M 891.863281 150.285156 " fill-opacity="1" fill-rule="nonzero"/><path fill="#5479f7" d="M 902.40625 159.746094 C 902.519531 160.015625 902.605469 160.292969 902.660156 160.578125 C 902.71875 160.863281 902.75 161.152344 902.75 161.445312 C 902.75 161.734375 902.722656 162.023438 902.667969 162.3125 C 902.609375 162.597656 902.527344 162.875 902.417969 163.144531 C 902.304688 163.414062 902.167969 163.671875 902.007812 163.914062 C 901.847656 164.15625 901.664062 164.382812 901.457031 164.589844 C 901.253906 164.796875 901.027344 164.980469 900.785156 165.140625 C 900.542969 165.304688 900.289062 165.441406 900.019531 165.554688 C 899.75 165.667969 899.472656 165.753906 899.1875 165.808594 C 898.902344 165.867188 898.613281 165.898438 898.320312 165.898438 C 898.03125 165.898438 897.742188 165.871094 897.453125 165.816406 C 897.167969 165.761719 896.890625 165.675781 896.621094 165.566406 C 896.351562 165.453125 896.09375 165.320312 895.851562 165.15625 C 895.609375 164.996094 895.382812 164.8125 895.175781 164.609375 C 894.96875 164.402344 894.785156 164.179688 894.621094 163.9375 C 894.460938 163.695312 894.320312 163.4375 894.210938 163.167969 C 894.097656 162.902344 894.011719 162.625 893.953125 162.335938 C 893.894531 162.050781 893.867188 161.761719 893.867188 161.472656 C 893.867188 161.179688 893.894531 160.890625 893.949219 160.605469 C 894.003906 160.320312 894.089844 160.039062 894.199219 159.769531 C 894.308594 159.5 894.445312 159.246094 894.605469 159 C 894.769531 158.757812 894.953125 158.535156 895.15625 158.328125 C 895.363281 158.121094 895.585938 157.9375 895.828125 157.773438 C 896.070312 157.609375 896.328125 157.472656 896.59375 157.359375 C 896.863281 157.246094 897.140625 157.164062 897.429688 157.105469 C 897.714844 157.046875 898.003906 157.019531 898.292969 157.015625 C 898.585938 157.015625 898.875 157.042969 899.160156 157.101562 C 899.445312 157.15625 899.726562 157.238281 899.996094 157.351562 C 900.265625 157.460938 900.519531 157.597656 900.765625 157.757812 C 901.007812 157.917969 901.230469 158.101562 901.4375 158.308594 C 901.644531 158.511719 901.832031 158.738281 901.992188 158.980469 C 902.15625 159.222656 902.292969 159.476562 902.40625 159.746094 Z M 902.40625 159.746094 " fill-opacity="1" fill-rule="nonzero"/><path fill="#e2eaff" d="M 916.960938 159.742188 C 917.074219 160.007812 917.160156 160.285156 917.214844 160.574219 C 917.273438 160.859375 917.304688 161.148438 917.304688 161.4375 C 917.304688 161.730469 917.277344 162.019531 917.222656 162.304688 C 917.164062 162.589844 917.082031 162.871094 916.972656 163.140625 C 916.859375 163.410156 916.726562 163.664062 916.5625 163.910156 C 916.402344 164.152344 916.21875 164.375 916.011719 164.582031 C 915.808594 164.789062 915.585938 164.976562 915.34375 165.136719 C 915.101562 165.300781 914.84375 165.4375 914.574219 165.550781 C 914.304688 165.664062 914.027344 165.746094 913.742188 165.804688 C 913.457031 165.863281 913.167969 165.890625 912.875 165.894531 C 912.585938 165.894531 912.296875 165.867188 912.011719 165.8125 C 911.722656 165.753906 911.445312 165.671875 911.175781 165.5625 C 910.90625 165.449219 910.648438 165.3125 910.40625 165.152344 C 910.164062 164.992188 909.9375 164.808594 909.730469 164.601562 C 909.523438 164.398438 909.339844 164.171875 909.175781 163.929688 C 909.015625 163.6875 908.878906 163.433594 908.765625 163.164062 C 908.652344 162.894531 908.566406 162.617188 908.507812 162.332031 C 908.453125 162.046875 908.421875 161.757812 908.421875 161.464844 C 908.421875 161.175781 908.449219 160.886719 908.503906 160.601562 C 908.558594 160.3125 908.644531 160.035156 908.753906 159.765625 C 908.863281 159.496094 909 159.238281 909.164062 158.996094 C 909.324219 158.753906 909.507812 158.527344 909.710938 158.320312 C 909.917969 158.117188 910.140625 157.929688 910.382812 157.769531 C 910.625 157.605469 910.882812 157.46875 911.152344 157.355469 C 911.417969 157.242188 911.699219 157.15625 911.984375 157.101562 C 912.269531 157.042969 912.558594 157.011719 912.847656 157.011719 C 913.140625 157.011719 913.429688 157.039062 913.714844 157.09375 C 914.003906 157.152344 914.28125 157.234375 914.550781 157.34375 C 914.820312 157.457031 915.078125 157.589844 915.320312 157.753906 C 915.5625 157.914062 915.789062 158.097656 915.992188 158.304688 C 916.199219 158.507812 916.386719 158.730469 916.546875 158.972656 C 916.710938 159.214844 916.847656 159.472656 916.960938 159.742188 Z M 916.960938 159.742188 " fill-opacity="1" fill-rule="nonzero"/><path fill="#e2eaff" d="M 931.480469 159.75 C 931.59375 160.019531 931.679688 160.296875 931.738281 160.582031 C 931.796875 160.867188 931.824219 161.15625 931.824219 161.449219 C 931.828125 161.738281 931.796875 162.027344 931.742188 162.316406 C 931.6875 162.601562 931.601562 162.878906 931.492188 163.148438 C 931.382812 163.417969 931.246094 163.675781 931.085938 163.917969 C 930.921875 164.160156 930.738281 164.386719 930.535156 164.59375 C 930.328125 164.800781 930.105469 164.984375 929.863281 165.148438 C 929.621094 165.308594 929.363281 165.445312 929.097656 165.558594 C 928.828125 165.671875 928.550781 165.757812 928.265625 165.816406 C 927.976562 165.871094 927.6875 165.902344 927.398438 165.902344 C 927.105469 165.902344 926.816406 165.875 926.53125 165.820312 C 926.246094 165.765625 925.964844 165.679688 925.695312 165.570312 C 925.425781 165.460938 925.171875 165.324219 924.925781 165.160156 C 924.683594 165 924.460938 164.816406 924.253906 164.613281 C 924.046875 164.40625 923.859375 164.183594 923.699219 163.941406 C 923.535156 163.699219 923.398438 163.441406 923.285156 163.175781 C 923.171875 162.90625 923.089844 162.628906 923.03125 162.339844 C 922.972656 162.054688 922.941406 161.765625 922.941406 161.476562 C 922.941406 161.183594 922.96875 160.894531 923.023438 160.609375 C 923.082031 160.324219 923.164062 160.042969 923.273438 159.773438 C 923.386719 159.503906 923.523438 159.25 923.683594 159.007812 C 923.84375 158.761719 924.027344 158.539062 924.234375 158.332031 C 924.4375 158.125 924.664062 157.941406 924.90625 157.777344 C 925.148438 157.613281 925.402344 157.476562 925.671875 157.363281 C 925.941406 157.25 926.21875 157.167969 926.503906 157.109375 C 926.789062 157.050781 927.078125 157.023438 927.371094 157.019531 C 927.660156 157.019531 927.949219 157.046875 928.238281 157.105469 C 928.523438 157.160156 928.800781 157.242188 929.070312 157.355469 C 929.339844 157.464844 929.597656 157.601562 929.839844 157.761719 C 930.082031 157.921875 930.308594 158.105469 930.515625 158.3125 C 930.722656 158.519531 930.90625 158.742188 931.070312 158.984375 C 931.230469 159.226562 931.371094 159.480469 931.480469 159.75 Z M 931.480469 159.75 " fill-opacity="1" fill-rule="nonzero"/><path fill="#e2eaff" d="M 936.691406 184.582031 L 976.289062 184.582031 L 976.289062 224.175781 L 936.691406 224.175781 Z M 936.691406 184.582031 " fill-opacity="1" fill-rule="nonzero"/><path fill="#e2eaff" d="M 936.691406 238.582031 L 976.289062 238.582031 L 976.289062 278.175781 L 936.691406 278.175781 Z M 936.691406 238.582031 " fill-opacity="1" fill-rule="nonzero"/><path fill="#e2eaff" d="M 987.003906 184.582031 L 1026.605469 184.582031 L 1026.605469 224.175781 L 987.003906 224.175781 Z M 987.003906 184.582031 " fill-opacity="1" fill-rule="nonzero"/><path fill="#5479f7" d="M 987.003906 238.582031 L 1026.605469 238.582031 L 1026.605469 278.175781 L 987.003906 278.175781 Z M 987.003906 238.582031 " fill-opacity="1" fill-rule="nonzero"/><path fill="#ffffff" d="M 962.742188 79.941406 L 962.742188 126.703125 L 946.65625 126.703125 C 944.15625 126.703125 942.847656 129.6875 944.566406 131.515625 L 979.648438 169.503906 C 980.769531 170.738281 982.710938 170.738281 983.867188 169.503906 L 1018.953125 131.515625 C 1020.632812 129.6875 1019.324219 126.703125 1016.863281 126.703125 L 1000.738281 126.703125 L 1000.738281 79.941406 Z M 962.742188 79.941406 " fill-opacity="1" fill-rule="nonzero"/><path fill="#5479f7" d="M 981.738281 171.222656 C 980.695312 171.222656 979.722656 170.773438 979.015625 170.027344 L 943.929688 132.039062 C 942.921875 130.957031 942.660156 129.425781 943.257812 128.082031 C 943.855469 126.703125 945.164062 125.878906 946.65625 125.878906 L 961.921875 125.878906 L 961.921875 79.941406 C 961.921875 79.496094 962.292969 79.121094 962.742188 79.121094 L 1000.699219 79.121094 C 1001.148438 79.121094 1001.523438 79.496094 1001.523438 79.941406 L 1001.523438 125.878906 L 1016.824219 125.878906 C 1018.316406 125.878906 1019.585938 126.738281 1020.183594 128.082031 C 1020.78125 129.425781 1020.519531 130.957031 1019.511719 132.039062 L 984.425781 170.027344 C 983.753906 170.8125 982.746094 171.222656 981.738281 171.222656 Z M 946.65625 127.523438 C 945.835938 127.523438 945.125 127.96875 944.789062 128.753906 C 944.453125 129.5 944.601562 130.320312 945.164062 130.957031 L 980.246094 168.945312 C 981.03125 169.804688 982.449219 169.804688 983.234375 168.945312 L 1018.316406 130.957031 C 1018.878906 130.359375 1019.027344 129.539062 1018.691406 128.753906 C 1018.355469 128.007812 1017.644531 127.523438 1016.824219 127.523438 L 1000.699219 127.523438 C 1000.253906 127.523438 999.878906 127.148438 999.878906 126.703125 L 999.878906 80.761719 L 963.601562 80.761719 L 963.601562 126.703125 C 963.601562 127.148438 963.226562 127.523438 962.78125 127.523438 Z M 946.65625 127.523438 " fill-opacity="1" fill-rule="nonzero"/></svg>